<?xml version="1.0" encoding="UTF-8" standalone="no"?>
<svg
   xmlns:dc="http://purl.org/dc/elements/1.1/"
   xmlns:cc="http://creativecommons.org/ns#"
   xmlns:rdf="http://www.w3.org/1999/02/22-rdf-syntax-ns#"
   xmlns:svg="http://www.w3.org/2000/svg"
   xmlns="http://www.w3.org/2000/svg"
   xmlns:sodipodi="http://sodipodi.sourceforge.net/DTD/sodipodi-0.dtd"
   xmlns:inkscape="http://www.inkscape.org/namespaces/inkscape"
   version="1.1"
   id="svg2"
   xml:space="preserve"
   width="419.58667"
   height="480"
   viewBox="0 0 419.58667 480"
   sodipodi:docname="guy.eps"><metadata
     id="metadata8"><rdf:RDF><cc:Work
         rdf:about=""><dc:format>image/svg+xml</dc:format><dc:type
           rdf:resource="http://purl.org/dc/dcmitype/StillImage" /></cc:Work></rdf:RDF></metadata><defs
     id="defs6"><clipPath
       clipPathUnits="userSpaceOnUse"
       id="clipPath564"><path
         d="m 456.402,1220.69 h -65.429 l -47.164,27.23 v 39.89 l 47.164,27.25 h 65.429 l 47.207,-27.25 -0.05,-39.89 -47.157,-27.23 m -1.339,89.34 -62.754,-0.05 -43.512,-25.06 0.047,-34.1 43.465,-25.05 62.754,-0.05 43.468,25.1 v 34.1 l -43.468,25.11"
         id="path562" /></clipPath></defs><sodipodi:namedview
     pagecolor="#ffffff"
     bordercolor="#666666"
     borderopacity="1"
     objecttolerance="10"
     gridtolerance="10"
     guidetolerance="10"
     inkscape:pageopacity="0"
     inkscape:pageshadow="2"
     inkscape:window-width="640"
     inkscape:window-height="480"
     id="namedview4" /><g
     id="g10"
     inkscape:groupmode="layer"
     inkscape:label="ink_ext_XXXXXX"
     transform="matrix(1.3333333,0,0,-1.3333333,0,480)"><g
       id="g12"
       transform="scale(0.1)"><path
         d="m 3146.88,2929.65 -28.89,-16.72 -1161.15,670.41 29.03,16.66 1161.01,-670.35"
         style="fill:#85309c;fill-opacity:1;fill-rule:nonzero;stroke:none"
         id="path14" /><path
         d="m 3146.88,2826.6 -28.89,-16.71 v 103.04 l 28.89,16.72 V 2826.6"
         style="fill:#6a2180;fill-opacity:1;fill-rule:nonzero;stroke:none"
         id="path16" /><path
         d="m 3146.88,1928.12 -28.89,-16.75 v 898.52 l 28.89,16.71 v -898.48"
         style="fill:#bdbfbd;fill-opacity:1;fill-rule:nonzero;stroke:none"
         id="path18" /><path
         d="M 3117.99,2912.93 1956.84,3583.34 V 3480.3 l 1161.15,-670.41 v 103.04"
         style="fill:#7d2695;fill-opacity:1;fill-rule:nonzero;stroke:none"
         id="path20" /><path
         d="m 1956.84,2581.78 1161.15,-670.41 v 898.52 L 1956.84,3480.3 v -898.52"
         style="fill:#edeeeb;fill-opacity:1;fill-rule:nonzero;stroke:none"
         id="path22" /><path
         d="m 2017.84,3377.29 v -769.9 L 3057.03,2007 v 769.97 l -1039.19,600.32"
         style="fill:#1a1516;fill-opacity:1;fill-rule:nonzero;stroke:none"
         id="path24" /><path
         d="m 2258.9,3136.11 -189.19,109.26 v 27.22 l 189.19,-109.27 v -27.21"
         style="fill:#edeeeb;fill-opacity:1;fill-rule:nonzero;stroke:none"
         id="path26" /><path
         d="m 2196.97,3106.57 -127.26,73.48 v 27.22 l 127.26,-73.48 v -27.22"
         style="fill:#7cc8bb;fill-opacity:1;fill-rule:nonzero;stroke:none"
         id="path28" /><path
         d="m 2133.34,3077.98 -63.63,36.75 v 27.23 l 63.63,-36.75 v -27.23"
         style="fill:#9d9991;fill-opacity:1;fill-rule:nonzero;stroke:none"
         id="path30" /><path
         d="m 2490.21,2872 -340.03,196.25 v 27.22 L 2490.21,2899.2 V 2872"
         style="fill:#7cc8bb;fill-opacity:1;fill-rule:nonzero;stroke:none"
         id="path32" /><path
         d="m 2339.74,2825.03 -242.9,140.27 v 27.23 l 242.9,-140.26 v -27.24"
         style="fill:#edeeeb;fill-opacity:1;fill-rule:nonzero;stroke:none"
         id="path34" /><path
         d="m 2278.69,2794.98 -105.34,60.84 v 27.23 l 105.34,-60.84 v -27.23"
         style="fill:#edeeeb;fill-opacity:1;fill-rule:nonzero;stroke:none"
         id="path36" /><path
         d="m 2324.97,2634.52 -191.63,110.61 v 27.23 l 191.63,-110.61 v -27.23"
         style="fill:#edeeeb;fill-opacity:1;fill-rule:nonzero;stroke:none"
         id="path38" /><path
         d="m 2391.37,2530.86 -258.03,148.95 v 27.23 l 258.03,-148.95 v -27.23"
         style="fill:#edeeeb;fill-opacity:1;fill-rule:nonzero;stroke:none"
         id="path40" /><path
         d="m 2188.44,2582.66 -55.1,31.84 v 27.22 l 55.1,-31.81 v -27.25"
         style="fill:#7cc8bb;fill-opacity:1;fill-rule:nonzero;stroke:none"
         id="path42" /><path
         d="M 2521.63,2390.33 2226,2560.97 v 27.22 l 295.63,-170.66 v -27.2"
         style="fill:#edeeeb;fill-opacity:1;fill-rule:nonzero;stroke:none"
         id="path44" /><path
         d="m 2535.02,2447.9 -125.1,72.23 v 27.23 l 125.1,-72.24 v -27.22"
         style="fill:#7cc8bb;fill-opacity:1;fill-rule:nonzero;stroke:none"
         id="path46" /><path
         d="m 2621.3,2398.11 -53.66,30.94 v 27.22 l 53.66,-30.96 v -27.2"
         style="fill:#9d9991;fill-opacity:1;fill-rule:nonzero;stroke:none"
         id="path48" /><path
         d="m 2605.89,2341.67 -53.61,30.94 v 27.25 l 53.61,-30.96 v -27.23"
         style="fill:#9d9991;fill-opacity:1;fill-rule:nonzero;stroke:none"
         id="path50" /><path
         d="m 2708.24,2347.91 -53.57,30.93 -0.05,27.23 53.62,-30.96 v -27.2"
         style="fill:#9d9991;fill-opacity:1;fill-rule:nonzero;stroke:none"
         id="path52" /><path
         d="m 3005.17,2203.69 -267.86,154.71 v -27.22 l 267.86,-154.72 v 27.23"
         style="fill:#7cc8bb;fill-opacity:1;fill-rule:nonzero;stroke:none"
         id="path54" /><path
         d="m 2841.32,2232.99 -205.21,118.47 v -27.23 l 205.21,-118.52 v 27.28"
         style="fill:#f68a33;fill-opacity:1;fill-rule:nonzero;stroke:none"
         id="path56" /><path
         d="m 2439.87,2568.17 -94.64,54.66 V 2650 l 94.64,-54.6 v -27.23"
         style="fill:#9d9991;fill-opacity:1;fill-rule:nonzero;stroke:none"
         id="path58" /><path
         d="m 2630.25,2458.24 -155.96,90.07 v 27.22 l 155.96,-90.08 v -27.21"
         style="fill:#7cc8bb;fill-opacity:1;fill-rule:nonzero;stroke:none"
         id="path60" /><path
         d="m 3005.17,2375.52 -693.81,400.57 v 27.27 l 693.81,-400.62 v -27.22"
         style="fill:#f68a33;fill-opacity:1;fill-rule:nonzero;stroke:none"
         id="path62" /><path
         d="m 2142.43,2873.64 -45.59,26.41 v 27.16 l 45.59,-26.33 v -27.24"
         style="fill:#9d9991;fill-opacity:1;fill-rule:nonzero;stroke:none"
         id="path64" /><path
         d="m 2083.18,3040.88 -12,6.88 v 27.22 l 12,-6.94 v -27.16"
         style="fill:#9d9991;fill-opacity:1;fill-rule:nonzero;stroke:none"
         id="path66" /><path
         d="m 2115.16,2820.94 -11.96,6.9 v 27.22 l 11.96,-6.9 v -27.22"
         style="fill:#9d9991;fill-opacity:1;fill-rule:nonzero;stroke:none"
         id="path68" /><path
         d="m 2391.37,2795.21 -40.7,23.54 0.05,27.2 40.65,-23.49 v -27.25"
         style="fill:#9d9991;fill-opacity:1;fill-rule:nonzero;stroke:none"
         id="path70" /><path
         d="m 2228.86,3088.18 -15.05,8.63 v 27.25 l 15.05,-8.65 v -27.23"
         style="fill:#9d9991;fill-opacity:1;fill-rule:nonzero;stroke:none"
         id="path72" /><path
         d="m 2278.69,3059.41 -30.83,17.79 v 27.24 l 30.83,-17.83 v -27.2"
         style="fill:#9d9991;fill-opacity:1;fill-rule:nonzero;stroke:none"
         id="path74" /><path
         d="m 2324.97,3098.01 -58.18,33.59 v 27.18 l 58.18,-33.55 v -27.22"
         style="fill:#9d9991;fill-opacity:1;fill-rule:nonzero;stroke:none"
         id="path76" /><path
         d="m 2969.17,1858.3 -28.93,-16.72 -1029.68,594.58 28.97,16.65 1029.64,-594.51"
         style="fill:#85309c;fill-opacity:1;fill-rule:nonzero;stroke:none"
         id="path78" /><path
         d="m 2969.17,1755.26 -28.93,-16.72 v 103.04 l 28.93,16.72 v -103.04"
         style="fill:#6a2180;fill-opacity:1;fill-rule:nonzero;stroke:none"
         id="path80" /><path
         d="m 2969.17,1064.55 -28.93,-16.73 v 690.72 l 28.93,16.72 v -690.71"
         style="fill:#bdbfbd;fill-opacity:1;fill-rule:nonzero;stroke:none"
         id="path82" /><path
         d="m 2940.24,1841.58 -1029.68,594.58 v -103.09 l 1029.68,-594.53 v 103.04"
         style="fill:#7d2695;fill-opacity:1;fill-rule:nonzero;stroke:none"
         id="path84" /><path
         d="m 1910.56,1642.32 1029.68,-594.5 v 690.72 l -1029.68,594.53 v -690.75"
         style="fill:#edeeeb;fill-opacity:1;fill-rule:nonzero;stroke:none"
         id="path86" /><path
         d="m 1971.51,2230.08 v -562.14 l 907.88,-524.51 v 562.14 l -907.88,524.51"
         style="fill:#1a1516;fill-opacity:1;fill-rule:nonzero;stroke:none"
         id="path88" /><path
         d="m 2073.81,2105.54 -47.85,27.64 v 27.24 l 47.85,-27.63 v -27.25"
         style="fill:#9d9991;fill-opacity:1;fill-rule:nonzero;stroke:none"
         id="path90" /><path
         d="m 2245.98,2006.12 -138.71,80.13 v 27.23 l 138.71,-80.11 v -27.25"
         style="fill:#edeeeb;fill-opacity:1;fill-rule:nonzero;stroke:none"
         id="path92" /><path
         d="m 2195.35,1904.72 -138.8,80.13 v 27.23 l 138.8,-80.11 v -27.25"
         style="fill:#edeeeb;fill-opacity:1;fill-rule:nonzero;stroke:none"
         id="path94" /><path
         d="m 2107.27,1890.28 -50.72,29.26 v 27.22 l 50.72,-29.28 v -27.2"
         style="fill:#7cc8bb;fill-opacity:1;fill-rule:nonzero;stroke:none"
         id="path96" /><path
         d="m 2283.44,1788.54 -129.52,74.79 v 27.23 l 129.52,-74.8 v -27.22"
         style="fill:#7cc8bb;fill-opacity:1;fill-rule:nonzero;stroke:none"
         id="path98" /><path
         d="m 2402.08,1720.11 -48.46,27.91 v 27.22 l 48.46,-27.95 v -27.18"
         style="fill:#7cc8bb;fill-opacity:1;fill-rule:nonzero;stroke:none"
         id="path100" /><path
         d="m 2326.63,1763.59 -24.18,13.99 v 27.2 l 24.18,-13.92 v -27.27"
         style="fill:#9d9991;fill-opacity:1;fill-rule:nonzero;stroke:none"
         id="path102" /><path
         d="m 2143.45,1869.4 -24.14,13.93 -0.04,27.25 24.18,-13.98 v -27.2"
         style="fill:#9d9991;fill-opacity:1;fill-rule:nonzero;stroke:none"
         id="path104" /><path
         d="m 2107.27,1824.96 -50.72,29.26 v 27.22 l 50.72,-29.28 v -27.2"
         style="fill:#7cc8bb;fill-opacity:1;fill-rule:nonzero;stroke:none"
         id="path106" /><path
         d="m 2088.86,1770.26 -32.31,18.64 v 27.18 l 32.31,-18.59 v -27.23"
         style="fill:#7cc8bb;fill-opacity:1;fill-rule:nonzero;stroke:none"
         id="path108" /><path
         d="m 2335.35,1627.93 -195.42,112.84 V 1768 l 195.42,-112.84 v -27.23"
         style="fill:#edeeeb;fill-opacity:1;fill-rule:nonzero;stroke:none"
         id="path110" /><path
         d="m 2218.7,1626.85 -162.51,93.83 v 27.18 l 162.47,-93.79 0.04,-27.22"
         style="fill:#edeeeb;fill-opacity:1;fill-rule:nonzero;stroke:none"
         id="path112" /><path
         d="m 2342.04,1555.58 -102.48,59.21 -0.05,27.26 102.53,-59.2 v -27.27"
         style="fill:#7cc8bb;fill-opacity:1;fill-rule:nonzero;stroke:none"
         id="path114" /><path
         d="m 2782.48,1301.28 -125.37,72.47 v 27.21 l 125.37,-72.39 v -27.29"
         style="fill:#7cc8bb;fill-opacity:1;fill-rule:nonzero;stroke:none"
         id="path116" /><path
         d="m 2410.11,1516.34 -41.99,24.25 v 27.14 l 41.99,-24.17 v -27.22"
         style="fill:#9d9991;fill-opacity:1;fill-rule:nonzero;stroke:none"
         id="path118" /><path
         d="m 2624.3,1392.7 -162.05,93.53 v 27.22 l 162.05,-93.53 v -27.22"
         style="fill:#f68a33;fill-opacity:1;fill-rule:nonzero;stroke:none"
         id="path120" /><path
         d="m 2549.04,1504.55 -195.42,112.81 v 27.23 l 195.42,-112.84 v -27.2"
         style="fill:#7cc8bb;fill-opacity:1;fill-rule:nonzero;stroke:none"
         id="path122" /><path
         d="m 2283.44,1723.22 -129.52,74.79 v 27.23 l 129.52,-74.84 v -27.18"
         style="fill:#7cc8bb;fill-opacity:1;fill-rule:nonzero;stroke:none"
         id="path124" /><path
         d="m 2402.08,1654.75 -48.46,27.96 v 27.19 l 48.46,-27.94 v -27.21"
         style="fill:#7cc8bb;fill-opacity:1;fill-rule:nonzero;stroke:none"
         id="path126" /><path
         d="m 2326.63,1698.25 -24.18,13.99 v 27.21 l 24.18,-13.97 v -27.23"
         style="fill:#9d9991;fill-opacity:1;fill-rule:nonzero;stroke:none"
         id="path128" /><path
         d="m 2143.45,1804.06 -24.14,13.98 -0.04,27.18 24.18,-13.94 v -27.22"
         style="fill:#9d9991;fill-opacity:1;fill-rule:nonzero;stroke:none"
         id="path130" /><path
         d="m 2125.96,1748.83 -24.23,13.98 v 27.22 l 24.23,-13.96 v -27.24"
         style="fill:#9d9991;fill-opacity:1;fill-rule:nonzero;stroke:none"
         id="path132" /><path
         d="m 2355.38,1812.34 -138.8,80.13 v 27.23 l 138.8,-80.13 v -27.23"
         style="fill:#7cc8bb;fill-opacity:1;fill-rule:nonzero;stroke:none"
         id="path134" /><path
         d="m 2483.19,1738.54 -87.85,50.78 v 27.22 l 87.85,-50.78 v -27.22"
         style="fill:#7cc8bb;fill-opacity:1;fill-rule:nonzero;stroke:none"
         id="path136" /><path
         d="m 2637.04,1649.71 -132.34,76.46 v 27.18 l 132.34,-76.42 v -27.22"
         style="fill:#7cc8bb;fill-opacity:1;fill-rule:nonzero;stroke:none"
         id="path138" /><path
         d="m 2759.64,1578.91 -78.54,45.36 v 27.21 l 78.54,-45.35 v -27.22"
         style="fill:#7cc8bb;fill-opacity:1;fill-rule:nonzero;stroke:none"
         id="path140" /><path
         d="m 2424.64,1902.97 -138.65,80.13 v 27.22 l 138.65,-80.1 v -27.25"
         style="fill:#7cc8bb;fill-opacity:1;fill-rule:nonzero;stroke:none"
         id="path142" /><path
         d="m 2037.92,2061.03 -11.96,6.95 v 27.15 l 11.96,-6.85 v -27.25"
         style="fill:#9d9991;fill-opacity:1;fill-rule:nonzero;stroke:none"
         id="path144" /><path
         d="m 2037.92,1664.99 -11.96,6.89 v 27.21 l 11.96,-6.92 v -27.18"
         style="fill:#9d9991;fill-opacity:1;fill-rule:nonzero;stroke:none"
         id="path146" /><path
         d="M 1058.67,2325.99 1029.78,2309.28 0,2903.86 28.9805,2920.52 1058.67,2325.99"
         style="fill:#85309c;fill-opacity:1;fill-rule:nonzero;stroke:none"
         id="path148" /><path
         d="m 1058.67,2222.95 -28.89,-16.73 v 103.06 l 28.89,16.71 v -103.04"
         style="fill:#345559;fill-opacity:1;fill-rule:nonzero;stroke:none"
         id="path150" /><path
         d="m 1058.67,1532.23 -28.89,-16.72 v 690.71 l 28.89,16.73 v -690.72"
         style="fill:#bdbfbd;fill-opacity:1;fill-rule:nonzero;stroke:none"
         id="path152" /><path
         d="M 1029.78,2309.28 0,2903.86 v -103.1 l 1029.78,-594.54 v 103.06"
         style="fill:#7d2695;fill-opacity:1;fill-rule:nonzero;stroke:none"
         id="path154" /><path
         d="m 0,2110.03 1029.78,-594.52 v 690.71 L 0,2800.76 v -690.73"
         style="fill:#edeeeb;fill-opacity:1;fill-rule:nonzero;stroke:none"
         id="path156" /><path
         d="M 61.0508,2697.77 V 2135.69 L 968.824,1611.16 V 2173.3 L 61.0508,2697.77"
         style="fill:#1a1516;fill-opacity:1;fill-rule:nonzero;stroke:none"
         id="path158" /><path
         d="m 163.301,2573.22 -47.809,27.64 v 27.25 l 47.809,-27.64 v -27.25"
         style="fill:#9d9991;fill-opacity:1;fill-rule:nonzero;stroke:none"
         id="path160" /><path
         d="m 335.461,2473.85 -138.707,80.09 v 27.22 l 138.707,-80.11 v -27.2"
         style="fill:#edeeeb;fill-opacity:1;fill-rule:nonzero;stroke:none"
         id="path162" /><path
         d="m 284.746,2372.48 -138.656,80.05 v 27.23 l 138.656,-80.08 v -27.2"
         style="fill:#edeeeb;fill-opacity:1;fill-rule:nonzero;stroke:none"
         id="path164" /><path
         d="m 196.754,2357.96 -50.664,29.26 v 27.22 l 50.664,-29.25 v -27.23"
         style="fill:#7cc8bb;fill-opacity:1;fill-rule:nonzero;stroke:none"
         id="path166" /><path
         d="m 372.973,2256.22 -129.614,74.8 v 27.22 l 129.614,-74.8 v -27.22"
         style="fill:#7cc8bb;fill-opacity:1;fill-rule:nonzero;stroke:none"
         id="path168" /><path
         d="m 491.469,2187.79 -48.403,27.91 v 27.23 l 48.403,-27.96 v -27.18"
         style="fill:#7cc8bb;fill-opacity:1;fill-rule:nonzero;stroke:none"
         id="path170" /><path
         d="m 416.07,2231.32 -24.175,13.94 v 27.2 l 24.175,-13.91 v -27.23"
         style="fill:#9d9991;fill-opacity:1;fill-rule:nonzero;stroke:none"
         id="path172" /><path
         d="m 232.887,2337.08 -24.137,13.96 -0.043,27.23 24.18,-13.98 v -27.21"
         style="fill:#9d9991;fill-opacity:1;fill-rule:nonzero;stroke:none"
         id="path174" /><path
         d="m 196.754,2292.65 -50.664,29.25 v 27.23 l 50.664,-29.26 v -27.22"
         style="fill:#7cc8bb;fill-opacity:1;fill-rule:nonzero;stroke:none"
         id="path176" /><path
         d="m 178.297,2237.95 -32.207,18.64 v 27.22 l 32.207,-18.64 v -27.22"
         style="fill:#7cc8bb;fill-opacity:1;fill-rule:nonzero;stroke:none"
         id="path178" /><path
         d="m 424.84,2095.66 -195.461,112.8 v 27.22 L 424.84,2122.84 v -27.18"
         style="fill:#edeeeb;fill-opacity:1;fill-rule:nonzero;stroke:none"
         id="path180" /><path
         d="m 308.145,2094.53 -162.469,93.83 v 27.18 l 162.469,-93.78 v -27.23"
         style="fill:#edeeeb;fill-opacity:1;fill-rule:nonzero;stroke:none"
         id="path182" /><path
         d="m 431.578,2023.31 -102.574,59.22 -0.047,27.21 102.621,-59.21 v -27.22"
         style="fill:#7cc8bb;fill-opacity:1;fill-rule:nonzero;stroke:none"
         id="path184" /><path
         d="m 871.969,1769.03 -125.414,72.41 v 27.2 l 125.414,-72.38 v -27.23"
         style="fill:#7cc8bb;fill-opacity:1;fill-rule:nonzero;stroke:none"
         id="path186" /><path
         d="m 499.547,1984.02 -41.899,24.25 v 27.2 l 41.899,-24.22 v -27.23"
         style="fill:#9d9991;fill-opacity:1;fill-rule:nonzero;stroke:none"
         id="path188" /><path
         d="m 713.742,1860.38 -162.051,93.55 v 27.2 l 162.051,-93.53 v -27.22"
         style="fill:#f68a33;fill-opacity:1;fill-rule:nonzero;stroke:none"
         id="path190" /><path
         d="m 638.48,1972.23 -195.414,112.82 v 27.23 L 638.48,1999.43 v -27.2"
         style="fill:#7cc8bb;fill-opacity:1;fill-rule:nonzero;stroke:none"
         id="path192" /><path
         d="m 372.973,2190.9 -129.614,74.8 v 27.22 l 129.614,-74.8 v -27.22"
         style="fill:#7cc8bb;fill-opacity:1;fill-rule:nonzero;stroke:none"
         id="path194" /><path
         d="m 491.469,2122.47 -48.403,27.92 v 27.22 l 48.403,-27.91 v -27.23"
         style="fill:#7cc8bb;fill-opacity:1;fill-rule:nonzero;stroke:none"
         id="path196" /><path
         d="m 416.07,2165.94 -24.175,13.98 v 27.22 l 24.175,-13.95 v -27.25"
         style="fill:#9d9991;fill-opacity:1;fill-rule:nonzero;stroke:none"
         id="path198" /><path
         d="m 232.887,2271.75 -24.137,13.98 -0.043,27.22 24.18,-13.98 v -27.22"
         style="fill:#9d9991;fill-opacity:1;fill-rule:nonzero;stroke:none"
         id="path200" /><path
         d="m 215.441,2216.53 -24.218,13.96 v 27.22 l 24.218,-13.95 v -27.23"
         style="fill:#9d9991;fill-opacity:1;fill-rule:nonzero;stroke:none"
         id="path202" /><path
         d="m 444.82,2280.03 -138.754,80.13 v 27.22 l 138.754,-80.13 v -27.22"
         style="fill:#7cc8bb;fill-opacity:1;fill-rule:nonzero;stroke:none"
         id="path204" /><path
         d="m 572.637,2206.22 -87.86,50.78 v 27.22 l 87.903,-50.77 -0.043,-27.23"
         style="fill:#7cc8bb;fill-opacity:1;fill-rule:nonzero;stroke:none"
         id="path206" /><path
         d="m 726.527,2117.42 -132.433,76.43 v 27.23 l 132.433,-76.46 v -27.2"
         style="fill:#7cc8bb;fill-opacity:1;fill-rule:nonzero;stroke:none"
         id="path208" /><path
         d="M 849.129,2046.61 770.547,2092 v 27.17 l 78.582,-45.36 v -27.2"
         style="fill:#7cc8bb;fill-opacity:1;fill-rule:nonzero;stroke:none"
         id="path210" /><path
         d="m 514.176,2370.65 -138.754,80.13 V 2478 l 138.754,-80.1 v -27.25"
         style="fill:#7cc8bb;fill-opacity:1;fill-rule:nonzero;stroke:none"
         id="path212" /><path
         d="m 127.402,2528.78 -11.91,6.88 v 27.23 l 11.91,-6.9 v -27.21"
         style="fill:#9d9991;fill-opacity:1;fill-rule:nonzero;stroke:none"
         id="path214" /><path
         d="m 127.402,2132.67 -11.91,6.9 v 27.2 l 11.91,-6.88 v -27.22"
         style="fill:#9d9991;fill-opacity:1;fill-rule:nonzero;stroke:none"
         id="path216" /><path
         d="m 2336.83,2543.6 -28.93,-16.73 -1581.373,913.06 28.977,16.68 1581.326,-913.01"
         style="fill:#85309c;fill-opacity:1;fill-rule:nonzero;stroke:none"
         id="path218" /><path
         d="m 2336.83,2440.54 -28.93,-16.73 v 103.06 l 28.93,16.73 v -103.06"
         style="fill:#6a2180;fill-opacity:1;fill-rule:nonzero;stroke:none"
         id="path220" /><path
         d="M 2336.83,298.148 2307.9,281.43 v 2142.38 l 28.93,16.73 V 298.148"
         style="fill:#bdbfbd;fill-opacity:1;fill-rule:nonzero;stroke:none"
         id="path222" /><path
         d="M 2307.9,2526.87 726.527,3439.93 V 3336.82 L 2307.9,2423.81 v 103.06"
         style="fill:#7d2695;fill-opacity:1;fill-rule:nonzero;stroke:none"
         id="path224" /><path
         d="M 726.527,1194.46 2307.9,281.43 V 2423.81 L 726.527,3336.82 V 1194.46"
         style="fill:#edeeeb;fill-opacity:1;fill-rule:nonzero;stroke:none"
         id="path226" /><path
         d="M 787.48,3233.83 V 1220.08 L 2246.99,377.102 V 2390.86 L 787.48,3233.83"
         style="fill:#1a1516;fill-opacity:1;fill-rule:nonzero;stroke:none"
         id="path228" /><path
         d="m 1044.91,3001.5 -189.273,109.29 v 27.2 l 189.273,-109.26 v -27.23"
         style="fill:#edeeeb;fill-opacity:1;fill-rule:nonzero;stroke:none"
         id="path230" /><path
         d="m 982.941,2971.92 -127.304,73.51 v 27.23 l 127.304,-73.52 v -27.22"
         style="fill:#7cc8bb;fill-opacity:1;fill-rule:nonzero;stroke:none"
         id="path232" /><path
         d="m 919.27,2943.43 -63.633,36.68 v 27.23 l 63.633,-36.69 v -27.22"
         style="fill:#9d9991;fill-opacity:1;fill-rule:nonzero;stroke:none"
         id="path234" /><path
         d="m 1276.14,2737.36 -339.988,196.31 v 27.25 L 1276.14,2764.6 v -27.24"
         style="fill:#7cc8bb;fill-opacity:1;fill-rule:nonzero;stroke:none"
         id="path236" /><path
         d="M 1125.76,2690.47 882.766,2830.7 v 27.25 l 242.994,-140.3 v -27.18"
         style="fill:#edeeeb;fill-opacity:1;fill-rule:nonzero;stroke:none"
         id="path238" /><path
         d="m 1064.66,2660.34 -105.39,60.89 v 27.22 l 105.39,-60.88 v -27.23"
         style="fill:#edeeeb;fill-opacity:1;fill-rule:nonzero;stroke:none"
         id="path240" /><path
         d="m 1110.9,2499.9 -191.63,110.6 v 27.23 l 191.63,-110.61 v -27.22"
         style="fill:#edeeeb;fill-opacity:1;fill-rule:nonzero;stroke:none"
         id="path242" /><path
         d="m 1177.34,2396.22 -258.07,148.95 v 27.25 l 258.07,-148.98 v -27.22"
         style="fill:#edeeeb;fill-opacity:1;fill-rule:nonzero;stroke:none"
         id="path244" /><path
         d="m 974.406,2448.03 -55.136,31.85 v 27.21 l 55.136,-31.83 v -27.23"
         style="fill:#7cc8bb;fill-opacity:1;fill-rule:nonzero;stroke:none"
         id="path246" /><path
         d="m 974.406,2382.72 -55.136,31.84 v 27.22 l 55.136,-31.83 v -27.23"
         style="fill:#7cc8bb;fill-opacity:1;fill-rule:nonzero;stroke:none"
         id="path248" /><path
         d="m 974.406,2317.4 -55.136,31.84 v 27.23 l 55.136,-31.84 v -27.23"
         style="fill:#7cc8bb;fill-opacity:1;fill-rule:nonzero;stroke:none"
         id="path250" /><path
         d="m 1069.92,2327.6 -55.1,31.84 v 27.23 l 55.1,-31.84 v -27.23"
         style="fill:#7cc8bb;fill-opacity:1;fill-rule:nonzero;stroke:none"
         id="path252" /><path
         d="m 1159.72,2275.74 -76.37,44.11 v 27.2 l 76.37,-44.09 v -27.22"
         style="fill:#9d9991;fill-opacity:1;fill-rule:nonzero;stroke:none"
         id="path254" /><path
         d="m 1307.56,2255.71 -295.59,170.64 v 27.24 l 295.59,-170.66 v -27.22"
         style="fill:#edeeeb;fill-opacity:1;fill-rule:nonzero;stroke:none"
         id="path256" /><path
         d="m 1189.71,2193.14 -193.249,111.53 v 27.22 l 193.249,-111.52 v -27.23"
         style="fill:#edeeeb;fill-opacity:1;fill-rule:nonzero;stroke:none"
         id="path258" /><path
         d="m 1079.47,2188.32 -160.2,92.5 v 27.21 l 160.2,-92.49 v -27.22"
         style="fill:#edeeeb;fill-opacity:1;fill-rule:nonzero;stroke:none"
         id="path260" /><path
         d="M 1385.68,1946.18 919.27,2215.5 v 27.22 l 466.41,-269.32 v -27.22"
         style="fill:#edeeeb;fill-opacity:1;fill-rule:nonzero;stroke:none"
         id="path262" /><path
         d="m 1131.25,2027.81 -211.98,122.37 v 27.2 l 211.98,-122.35 v -27.22"
         style="fill:#edeeeb;fill-opacity:1;fill-rule:nonzero;stroke:none"
         id="path264" /><path
         d="m 978.004,2050.91 -58.734,33.93 v 27.23 l 58.734,-33.9 v -27.26"
         style="fill:#9d9991;fill-opacity:1;fill-rule:nonzero;stroke:none"
         id="path266" /><path
         d="m 1030.1,1883.98 -81.491,47.04 v 27.25 l 81.491,-47.06 v -27.23"
         style="fill:#7cc8bb;fill-opacity:1;fill-rule:nonzero;stroke:none"
         id="path268" /><path
         d="m 996.461,1838.07 -47.852,27.64 v 27.22 l 47.852,-27.64 v -27.22"
         style="fill:#9d9991;fill-opacity:1;fill-rule:nonzero;stroke:none"
         id="path270" /><path
         d="m 1031.26,1684.25 -47.858,27.64 v 27.22 l 47.858,-27.64 v -27.22"
         style="fill:#9d9991;fill-opacity:1;fill-rule:nonzero;stroke:none"
         id="path272" /><path
         d="m 1203.37,1584.88 -138.71,80.06 v 27.23 l 138.71,-80.13 v -27.16"
         style="fill:#edeeeb;fill-opacity:1;fill-rule:nonzero;stroke:none"
         id="path274" /><path
         d="m 1152.71,1483.49 -138.72,80.05 v 27.22 l 138.72,-80.06 v -27.21"
         style="fill:#edeeeb;fill-opacity:1;fill-rule:nonzero;stroke:none"
         id="path276" /><path
         d="m 1064.66,1468.99 -50.67,29.23 v 27.23 l 50.67,-29.23 v -27.23"
         style="fill:#7cc8bb;fill-opacity:1;fill-rule:nonzero;stroke:none"
         id="path278" /><path
         d="m 1240.88,1367.23 -129.52,74.79 v 27.23 l 129.52,-74.81 v -27.21"
         style="fill:#7cc8bb;fill-opacity:1;fill-rule:nonzero;stroke:none"
         id="path280" /><path
         d="m 1359.42,1298.79 -48.4,27.9 v 27.22 l 48.4,-27.93 v -27.19"
         style="fill:#7cc8bb;fill-opacity:1;fill-rule:nonzero;stroke:none"
         id="path282" /><path
         d="m 1283.98,1342.29 -24.13,13.95 v 27.25 l 24.13,-13.94 v -27.26"
         style="fill:#9d9991;fill-opacity:1;fill-rule:nonzero;stroke:none"
         id="path284" /><path
         d="m 1100.84,1448.07 -24.18,13.98 -0.05,27.22 24.23,-13.98 v -27.22"
         style="fill:#9d9991;fill-opacity:1;fill-rule:nonzero;stroke:none"
         id="path286" /><path
         d="m 1064.66,1403.67 -50.67,29.24 v 27.22 l 50.67,-29.3 v -27.16"
         style="fill:#7cc8bb;fill-opacity:1;fill-rule:nonzero;stroke:none"
         id="path288" /><path
         d="m 1046.26,1348.97 -32.27,18.62 v 27.22 l 32.27,-18.64 v -27.2"
         style="fill:#7cc8bb;fill-opacity:1;fill-rule:nonzero;stroke:none"
         id="path290" /><path
         d="m 1292.75,1206.67 -195.46,112.77 v 27.23 l 195.46,-112.82 v -27.18"
         style="fill:#edeeeb;fill-opacity:1;fill-rule:nonzero;stroke:none"
         id="path292" /><path
         d="m 1176.1,1205.54 -162.47,93.83 v 27.18 l 162.47,-93.79 v -27.22"
         style="fill:#edeeeb;fill-opacity:1;fill-rule:nonzero;stroke:none"
         id="path294" /><path
         d="m 1018.01,1163.09 -34.608,19.93 v 27.22 l 34.608,-19.91 v -27.24"
         style="fill:#7cc8bb;fill-opacity:1;fill-rule:nonzero;stroke:none"
         id="path296" /><path
         d="m 1154.69,1084.16 -86.66,50.07 v 27.15 l 86.66,-49.99 v -27.23"
         style="fill:#7cc8bb;fill-opacity:1;fill-rule:nonzero;stroke:none"
         id="path298" /><path
         d="m 1059.12,1139.28 -31.23,18.06 v 27.18 l 31.23,-18.02 v -27.22"
         style="fill:#9d9991;fill-opacity:1;fill-rule:nonzero;stroke:none"
         id="path300" /><path
         d="m 1299.48,1134.25 -102.53,59.27 v 27.22 l 102.53,-59.2 v -27.29"
         style="fill:#7cc8bb;fill-opacity:1;fill-rule:nonzero;stroke:none"
         id="path302" /><path
         d="m 1739.92,879.969 -125.42,72.472 v 27.231 l 125.42,-72.422 v -27.281"
         style="fill:#7cc8bb;fill-opacity:1;fill-rule:nonzero;stroke:none"
         id="path304" /><path
         d="m 1828.8,828.691 -52.01,30.008 v 27.231 l 52.01,-30.02 v -27.219"
         style="fill:#7cc8bb;fill-opacity:1;fill-rule:nonzero;stroke:none"
         id="path306" /><path
         d="m 1904,785.238 -52,30.082 v 27.231 l 52,-30.082 v -27.231"
         style="fill:#7cc8bb;fill-opacity:1;fill-rule:nonzero;stroke:none"
         id="path308" /><path
         d="m 1367.5,1095.03 -41.94,24.22 v 27.22 l 41.94,-24.2 v -27.24"
         style="fill:#9d9991;fill-opacity:1;fill-rule:nonzero;stroke:none"
         id="path310" /><path
         d="m 1581.65,971.391 -162.05,93.569 v 27.16 l 162.05,-93.518 v -27.211"
         style="fill:#f68a33;fill-opacity:1;fill-rule:nonzero;stroke:none"
         id="path312" /><path
         d="m 1506.48,1083.23 -195.46,112.82 v 27.23 l 195.46,-112.82 v -27.23"
         style="fill:#7cc8bb;fill-opacity:1;fill-rule:nonzero;stroke:none"
         id="path314" /><path
         d="m 1240.88,1301.9 -129.52,74.78 v 27.23 l 129.52,-74.78 v -27.23"
         style="fill:#7cc8bb;fill-opacity:1;fill-rule:nonzero;stroke:none"
         id="path316" /><path
         d="m 1359.42,1233.48 -48.4,27.89 v 27.22 l 48.4,-27.87 v -27.24"
         style="fill:#7cc8bb;fill-opacity:1;fill-rule:nonzero;stroke:none"
         id="path318" /><path
         d="m 1283.98,1276.97 -24.13,13.98 v 27.22 l 24.13,-13.98 v -27.22"
         style="fill:#9d9991;fill-opacity:1;fill-rule:nonzero;stroke:none"
         id="path320" /><path
         d="m 1100.84,1382.74 -24.18,13.99 -0.05,27.23 24.23,-13.99 v -27.23"
         style="fill:#9d9991;fill-opacity:1;fill-rule:nonzero;stroke:none"
         id="path322" /><path
         d="m 1083.35,1327.52 -24.23,13.97 v 27.23 l 24.23,-13.97 v -27.23"
         style="fill:#9d9991;fill-opacity:1;fill-rule:nonzero;stroke:none"
         id="path324" /><path
         d="m 1312.73,1391.04 -138.75,80.09 v 27.26 l 138.75,-80.13 v -27.22"
         style="fill:#7cc8bb;fill-opacity:1;fill-rule:nonzero;stroke:none"
         id="path326" /><path
         d="m 1440.59,1317.23 -87.9,50.78 v 27.22 l 87.95,-50.78 -0.05,-27.22"
         style="fill:#7cc8bb;fill-opacity:1;fill-rule:nonzero;stroke:none"
         id="path328" /><path
         d="m 1594.48,1228.4 -132.43,76.46 v 27.23 l 132.43,-76.45 v -27.24"
         style="fill:#7cc8bb;fill-opacity:1;fill-rule:nonzero;stroke:none"
         id="path330" /><path
         d="m 1717.08,1157.6 -78.53,45.4 v 27.16 l 78.53,-45.32 v -27.24"
         style="fill:#7cc8bb;fill-opacity:1;fill-rule:nonzero;stroke:none"
         id="path332" /><path
         d="m 1382.08,1481.66 -138.75,80.13 v 27.22 l 138.75,-80.12 v -27.23"
         style="fill:#7cc8bb;fill-opacity:1;fill-rule:nonzero;stroke:none"
         id="path334" /><path
         d="m 1136.64,1757.11 -112.26,64.81 v 27.22 l 112.26,-64.8 v -27.23"
         style="fill:#7cc8bb;fill-opacity:1;fill-rule:nonzero;stroke:none"
         id="path336" /><path
         d="m 1269.81,1745.58 -189,109.1 v 27.22 l 189,-109.15 v -27.17"
         style="fill:#edeeeb;fill-opacity:1;fill-rule:nonzero;stroke:none"
         id="path338" /><path
         d="m 1567.62,1573.64 -235.51,135.97 v 27.22 l 235.51,-135.96 v -27.23"
         style="fill:#7cc8bb;fill-opacity:1;fill-rule:nonzero;stroke:none"
         id="path340" /><path
         d="m 1857.68,1406.21 -235.47,135.94 v 27.21 l 235.47,-135.99 v -27.16"
         style="fill:#7cc8bb;fill-opacity:1;fill-rule:nonzero;stroke:none"
         id="path342" /><path
         d="m 1097.29,1981.99 -89.98,52.02 v 27.23 l 89.98,-52.01 v -27.24"
         style="fill:#7cc8bb;fill-opacity:1;fill-rule:nonzero;stroke:none"
         id="path344" /><path
         d="m 1292.75,1934.53 -145.9,84.28 v 27.23 l 145.9,-84.26 v -27.25"
         style="fill:#7cc8bb;fill-opacity:1;fill-rule:nonzero;stroke:none"
         id="path346" /><path
         d="m 1365.01,1892.77 -52.28,30.22 v 27.23 l 52.28,-30.21 v -27.24"
         style="fill:#9d9991;fill-opacity:1;fill-rule:nonzero;stroke:none"
         id="path348" /><path
         d="m 1452.4,1907.68 -36.22,20.92 v 27.23 l 36.22,-20.91 v -27.24"
         style="fill:#f68a33;fill-opacity:1;fill-rule:nonzero;stroke:none"
         id="path350" /><path
         d="m 1500.39,1879.94 -36.08,20.9 v 27.19 l 36.08,-20.86 v -27.23"
         style="fill:#9d9991;fill-opacity:1;fill-rule:nonzero;stroke:none"
         id="path352" /><path
         d="m 1585.71,1830.73 -36.13,20.86 v 27.22 l 36.13,-20.88 v -27.2"
         style="fill:#f68a33;fill-opacity:1;fill-rule:nonzero;stroke:none"
         id="path354" /><path
         d="m 1709.88,1759.02 -112.26,64.76 v 27.28 l 112.26,-64.79 v -27.25"
         style="fill:#7cc8bb;fill-opacity:1;fill-rule:nonzero;stroke:none"
         id="path356" /><path
         d="m 1192.57,2122.98 -95.33,55.1 v 27.15 l 95.33,-55.01 v -27.24"
         style="fill:#7cc8bb;fill-opacity:1;fill-rule:nonzero;stroke:none"
         id="path358" /><path
         d="m 1279.69,2072.69 -53.85,31.09 v 27.26 l 53.85,-31.13 v -27.22"
         style="fill:#9d9991;fill-opacity:1;fill-rule:nonzero;stroke:none"
         id="path360" /><path
         d="m 1431.92,1984.85 -105.21,60.7 v 27.22 l 105.21,-60.69 v -27.23"
         style="fill:#f68a33;fill-opacity:1;fill-rule:nonzero;stroke:none"
         id="path362" /><path
         d="m 1505.97,1942.05 -47.25,27.34 v 27.2 l 47.25,-27.31 v -27.23"
         style="fill:#7cc8bb;fill-opacity:1;fill-rule:nonzero;stroke:none"
         id="path364" /><path
         d="m 1579.2,1899.81 -47.34,27.27 v 27.25 l 47.34,-27.27 v -27.25"
         style="fill:#7cc8bb;fill-opacity:1;fill-rule:nonzero;stroke:none"
         id="path366" /><path
         d="m 1404.14,2069.32 -193.2,111.52 v 27.2 l 193.25,-111.52 -0.05,-27.2"
         style="fill:#7cc8bb;fill-opacity:1;fill-rule:nonzero;stroke:none"
         id="path368" /><path
         d="m 1478.11,2026.63 -51.5,29.69 v 27.25 l 51.5,-29.71 v -27.23"
         style="fill:#9d9991;fill-opacity:1;fill-rule:nonzero;stroke:none"
         id="path370" /><path
         d="m 1321.04,2313.25 -125.19,72.26 v 27.23 l 125.19,-72.26 v -27.23"
         style="fill:#7cc8bb;fill-opacity:1;fill-rule:nonzero;stroke:none"
         id="path372" /><path
         d="m 1407.23,2263.54 -53.57,30.88 v 27.21 l 53.57,-30.87 v -27.22"
         style="fill:#9d9991;fill-opacity:1;fill-rule:nonzero;stroke:none"
         id="path374" /><path
         d="m 1391.82,2207.05 -53.58,30.96 v 27.2 l 53.58,-30.93 v -27.23"
         style="fill:#9d9991;fill-opacity:1;fill-rule:nonzero;stroke:none"
         id="path376" /><path
         d="m 1494.21,2213.33 -53.57,30.93 -0.05,27.16 53.62,-30.94 v -27.15"
         style="fill:#9d9991;fill-opacity:1;fill-rule:nonzero;stroke:none"
         id="path378" /><path
         d="m 1832.9,2017.71 -309.67,178.82 v 27.25 l 309.62,-178.85 0.05,-27.22"
         style="fill:#7cc8bb;fill-opacity:1;fill-rule:nonzero;stroke:none"
         id="path380" /><path
         d="m 2076.21,1811.92 -654.17,377.69 v 27.23 l 654.17,-377.69 v -27.23"
         style="fill:#f68a33;fill-opacity:1;fill-rule:nonzero;stroke:none"
         id="path382" /><path
         d="m 1225.84,2433.54 -94.59,54.66 v 27.16 l 94.59,-54.59 v -27.23"
         style="fill:#9d9991;fill-opacity:1;fill-rule:nonzero;stroke:none"
         id="path384" /><path
         d="m 1416.18,2323.61 -155.92,90.05 v 27.22 l 155.92,-90.05 v -27.22"
         style="fill:#7cc8bb;fill-opacity:1;fill-rule:nonzero;stroke:none"
         id="path386" /><path
         d="m 1791.14,2240.94 -693.85,400.58 v 27.19 l 693.85,-400.54 v -27.23"
         style="fill:#f68a33;fill-opacity:1;fill-rule:nonzero;stroke:none"
         id="path388" /><path
         d="m 928.398,2739.02 -45.632,26.39 v 27.17 l 45.632,-26.27 v -27.29"
         style="fill:#9d9991;fill-opacity:1;fill-rule:nonzero;stroke:none"
         id="path390" /><path
         d="m 869.105,2906.23 -11.902,6.91 v 27.22 l 11.902,-6.9 v -27.23"
         style="fill:#9d9991;fill-opacity:1;fill-rule:nonzero;stroke:none"
         id="path392" /><path
         d="m 901.133,2686.37 -11.996,6.89 v 27.23 l 11.996,-6.92 v -27.2"
         style="fill:#9d9991;fill-opacity:1;fill-rule:nonzero;stroke:none"
         id="path394" /><path
         d="m 934.398,2006.12 -11.996,6.88 v 27.22 l 11.996,-6.85 v -27.25"
         style="fill:#9d9991;fill-opacity:1;fill-rule:nonzero;stroke:none"
         id="path396" /><path
         d="m 965.27,1789.23 -11.997,6.92 v 27.18 l 11.997,-6.88 v -27.22"
         style="fill:#9d9991;fill-opacity:1;fill-rule:nonzero;stroke:none"
         id="path398" /><path
         d="m 995.352,1639.79 -11.95,6.88 v 27.23 l 11.95,-6.89 v -27.22"
         style="fill:#9d9991;fill-opacity:1;fill-rule:nonzero;stroke:none"
         id="path400" /><path
         d="m 995.352,1243.67 -11.95,6.88 v 27.24 l 11.95,-6.87 v -27.25"
         style="fill:#9d9991;fill-opacity:1;fill-rule:nonzero;stroke:none"
         id="path402" /><path
         d="m 1177.34,2660.62 -40.7,23.48 v 27.23 l 40.7,-23.49 v -27.22"
         style="fill:#9d9991;fill-opacity:1;fill-rule:nonzero;stroke:none"
         id="path404" /><path
         d="m 1014.82,2953.56 -15.082,8.7 v 27.22 l 15.082,-8.7 v -27.22"
         style="fill:#9d9991;fill-opacity:1;fill-rule:nonzero;stroke:none"
         id="path406" /><path
         d="m 1064.66,2924.79 -30.87,17.81 v 27.2 l 30.87,-17.79 v -27.22"
         style="fill:#9d9991;fill-opacity:1;fill-rule:nonzero;stroke:none"
         id="path408" /><path
         d="m 1110.9,2963.39 -58.14,33.61 v 27.16 l 58.14,-33.55 v -27.22"
         style="fill:#9d9991;fill-opacity:1;fill-rule:nonzero;stroke:none"
         id="path410" /><path
         d="m 1696.91,2876.75 65.25,37.68 -28.05,16.08 -65.3,-37.6 28.1,-16.16"
         style="fill:#d5d0ca;fill-opacity:1;fill-rule:nonzero;stroke:none"
         id="path412" /><path
         d="m 1113.3,528.852 27.96,-16.223 86.56,215.32 489.86,2131.251 -20.77,17.55 -28.1,16.16 L 1113.3,528.852"
         style="fill:#8a8680;fill-opacity:1;fill-rule:nonzero;stroke:none"
         id="path414" /><path
         d="m 1141.26,512.629 65.29,37.652 555.61,2364.149 -65.25,-37.68 -555.65,-2364.121"
         style="fill:#c4beb2;fill-opacity:1;fill-rule:nonzero;stroke:none"
         id="path416" /><path
         d="m 2066.48,2577.7 -356.83,205.98 -6.46,-3.8 356.69,-208.76 6.6,6.58"
         style="fill:#d5d0ca;fill-opacity:1;fill-rule:nonzero;stroke:none"
         id="path418" /><path
         d="m 2059.88,2573.84 -356.69,206.04 -4.8,-8.2 356.69,-213.59 4.8,15.75"
         style="fill:#9d9991;fill-opacity:1;fill-rule:nonzero;stroke:none"
         id="path420" /><path
         d="m 2055.08,2565.75 -356.69,205.93 v -7.66 l 356.69,-205.93 v 7.66"
         style="fill:#8a8680;fill-opacity:1;fill-rule:nonzero;stroke:none"
         id="path422" /><path
         d="m 2059.88,2555.34 -4.8,2.75 v 7.66 l 4.8,8.09 6.6,3.86 4.75,-2.7 v -7.75 l -4.75,-8.03 -6.6,-3.88"
         style="fill:#c4beb2;fill-opacity:1;fill-rule:nonzero;stroke:none"
         id="path424" /><path
         d="m 2020.94,2383.3 -356.74,206 -6.64,-3.85 356.78,-208.78 6.6,6.63"
         style="fill:#d5d0ca;fill-opacity:1;fill-rule:nonzero;stroke:none"
         id="path426" /><path
         d="m 2014.34,2379.42 -356.78,206.03 -4.67,-8.16 356.69,-213.68 4.76,15.81"
         style="fill:#9d9991;fill-opacity:1;fill-rule:nonzero;stroke:none"
         id="path428" /><path
         d="m 2009.58,2371.32 -356.69,205.97 v -7.58 l 356.69,-206.1 v 7.71"
         style="fill:#8a8680;fill-opacity:1;fill-rule:nonzero;stroke:none"
         id="path430" /><path
         d="m 2014.34,2360.87 -4.76,2.74 v 7.71 l 4.76,8.1 6.6,3.88 4.74,-2.75 V 2373 l -4.74,-8.23 -6.6,-3.9"
         style="fill:#c4beb2;fill-opacity:1;fill-rule:nonzero;stroke:none"
         id="path432" /><path
         d="m 1975.44,2188.94 -356.83,205.94 -6.51,-3.88 356.83,-208.75 6.51,6.69"
         style="fill:#d5d0ca;fill-opacity:1;fill-rule:nonzero;stroke:none"
         id="path434" /><path
         d="M 1968.89,2185.11 1612.1,2391 l -4.79,-8.21 356.78,-213.53 4.8,15.85"
         style="fill:#9d9991;fill-opacity:1;fill-rule:nonzero;stroke:none"
         id="path436" /><path
         d="m 1964.09,2176.97 -356.78,205.82 v -7.59 l 356.78,-205.94 v 7.71"
         style="fill:#8a8680;fill-opacity:1;fill-rule:nonzero;stroke:none"
         id="path438" /><path
         d="m 1968.89,2166.47 -4.8,2.79 v 7.71 l 4.8,8.14 6.55,3.83 4.71,-2.84 v -7.63 l -4.71,-8.1 -6.55,-3.9"
         style="fill:#c4beb2;fill-opacity:1;fill-rule:nonzero;stroke:none"
         id="path440" /><path
         d="m 1929.94,1994.54 -356.74,205.94 -6.64,-3.88 356.87,-208.73 6.51,6.67"
         style="fill:#d5d0ca;fill-opacity:1;fill-rule:nonzero;stroke:none"
         id="path442" /><path
         d="m 1923.34,1990.64 -356.78,205.96 -4.7,-8.17 356.82,-213.57 4.66,15.78"
         style="fill:#9d9991;fill-opacity:1;fill-rule:nonzero;stroke:none"
         id="path444" /><path
         d="m 1918.68,1982.38 -356.82,206.05 v -7.61 l 356.82,-205.96 v 7.52"
         style="fill:#8a8680;fill-opacity:1;fill-rule:nonzero;stroke:none"
         id="path446" /><path
         d="m 1923.34,1972.02 -4.66,2.84 v 7.52 l 4.66,8.33 6.6,3.83 4.76,-2.74 v -7.78 l -4.76,-8.12 -6.6,-3.88"
         style="fill:#c4beb2;fill-opacity:1;fill-rule:nonzero;stroke:none"
         id="path448" /><path
         d="m 1884.44,1800.07 -356.82,205.89 -6.56,-3.88 356.87,-208.63 6.51,6.62"
         style="fill:#d5d0ca;fill-opacity:1;fill-rule:nonzero;stroke:none"
         id="path450" /><path
         d="m 1877.89,1796.19 -356.83,205.89 -4.7,-8 356.82,-213.62 4.71,15.73"
         style="fill:#9d9991;fill-opacity:1;fill-rule:nonzero;stroke:none"
         id="path452" /><path
         d="m 1873.18,1788.03 -356.82,206.05 v -7.73 l 356.82,-205.89 v 7.57"
         style="fill:#8a8680;fill-opacity:1;fill-rule:nonzero;stroke:none"
         id="path454" /><path
         d="m 1877.89,1777.71 -4.71,2.75 v 7.57 l 4.71,8.16 6.55,3.88 4.71,-2.68 v -7.73 l -4.71,-8.08 -6.55,-3.87"
         style="fill:#c4beb2;fill-opacity:1;fill-rule:nonzero;stroke:none"
         id="path456" /><path
         d="m 1838.99,1605.66 -356.73,205.92 -6.69,-3.78 356.82,-208.8 6.6,6.66"
         style="fill:#d5d0ca;fill-opacity:1;fill-rule:nonzero;stroke:none"
         id="path458" /><path
         d="m 1832.39,1601.84 -356.82,205.96 -4.71,-8.19 356.83,-213.59 4.7,15.82"
         style="fill:#9d9991;fill-opacity:1;fill-rule:nonzero;stroke:none"
         id="path460" /><path
         d="m 1827.69,1593.67 -356.83,205.94 v -7.64 l 356.83,-205.95 v 7.65"
         style="fill:#8a8680;fill-opacity:1;fill-rule:nonzero;stroke:none"
         id="path462" /><path
         d="m 1832.39,1583.31 -4.7,2.71 v 7.65 l 4.7,8.17 6.6,3.82 4.66,-2.79 v -7.66 l -4.66,-8.07 -6.6,-3.83"
         style="fill:#c4beb2;fill-opacity:1;fill-rule:nonzero;stroke:none"
         id="path464" /><path
         d="m 1793.41,1411.22 -356.7,206.01 -6.54,-3.78 356.68,-208.76 6.56,6.53"
         style="fill:#d5d0ca;fill-opacity:1;fill-rule:nonzero;stroke:none"
         id="path466" /><path
         d="m 1786.85,1407.34 -356.68,206.11 -4.81,-8.24 356.78,-213.67 4.71,15.8"
         style="fill:#9d9991;fill-opacity:1;fill-rule:nonzero;stroke:none"
         id="path468" /><path
         d="m 1782.14,1399.27 -356.78,205.94 v -7.66 l 356.78,-206.01 v 7.73"
         style="fill:#8a8680;fill-opacity:1;fill-rule:nonzero;stroke:none"
         id="path470" /><path
         d="m 1786.85,1388.91 -4.71,2.63 v 7.73 l 4.71,8.17 6.56,3.78 4.83,-2.7 v -7.78 l -4.83,-8.04 -6.56,-3.79"
         style="fill:#c4beb2;fill-opacity:1;fill-rule:nonzero;stroke:none"
         id="path472" /><path
         d="m 1747.95,1216.77 -356.87,205.98 -6.55,-3.82 356.87,-208.78 6.55,6.62"
         style="fill:#d5d0ca;fill-opacity:1;fill-rule:nonzero;stroke:none"
         id="path474" /><path
         d="m 1741.35,1212.99 -356.82,205.94 -4.67,-8.12 356.83,-213.6 4.66,15.78"
         style="fill:#9d9991;fill-opacity:1;fill-rule:nonzero;stroke:none"
         id="path476" /><path
         d="m 1736.69,1204.84 -356.83,205.97 v -7.67 l 356.83,-205.93 v 7.63"
         style="fill:#8a8680;fill-opacity:1;fill-rule:nonzero;stroke:none"
         id="path478" /><path
         d="m 1741.4,1194.46 -4.71,2.75 v 7.63 l 4.66,8.15 6.56,3.78 4.84,-2.54 v -7.73 l -4.84,-8.21 -6.51,-3.83"
         style="fill:#c4beb2;fill-opacity:1;fill-rule:nonzero;stroke:none"
         id="path480" /><path
         d="m 1702.59,1022.42 -356.82,205.94 -6.74,-3.91 356.87,-208.61 6.69,6.58"
         style="fill:#d5d0ca;fill-opacity:1;fill-rule:nonzero;stroke:none"
         id="path482" /><path
         d="m 1695.9,1018.56 -356.87,205.89 -4.71,-8 356.83,-213.72 4.75,15.83"
         style="fill:#9d9991;fill-opacity:1;fill-rule:nonzero;stroke:none"
         id="path484" /><path
         d="m 1691.15,1010.47 -356.83,205.98 v -7.71 l 356.83,-206.01 v 7.74"
         style="fill:#8a8680;fill-opacity:1;fill-rule:nonzero;stroke:none"
         id="path486" /><path
         d="m 1695.9,999.988 -4.75,2.742 v 7.74 l 4.75,8.09 6.69,3.86 4.57,-2.68 v -7.8 l -4.57,-8.07 -6.69,-3.882"
         style="fill:#c4beb2;fill-opacity:1;fill-rule:nonzero;stroke:none"
         id="path488" /><path
         d="m 1657.05,828.07 -356.78,205.84 -6.7,-3.79 356.88,-208.64 6.6,6.59"
         style="fill:#d5d0ca;fill-opacity:1;fill-rule:nonzero;stroke:none"
         id="path490" /><path
         d="m 1650.45,824.121 -356.88,205.999 -4.6,-8.19 356.72,-213.59 4.76,15.781"
         style="fill:#9d9991;fill-opacity:1;fill-rule:nonzero;stroke:none"
         id="path492" /><path
         d="m 1645.69,816.039 -356.72,205.891 v -7.58 l 356.72,-206.01 v 7.699"
         style="fill:#8a8680;fill-opacity:1;fill-rule:nonzero;stroke:none"
         id="path494" /><path
         d="m 1650.45,805.699 -4.76,2.641 v 7.699 l 4.76,8.242 6.6,3.789 4.71,-2.871 v -7.59 l -4.71,-8.027 -6.6,-3.883"
         style="fill:#c4beb2;fill-opacity:1;fill-rule:nonzero;stroke:none"
         id="path496" /><path
         d="m 1611.55,633.66 -356.78,205.852 -6.73,-3.793 356.86,-208.68 6.65,6.621"
         style="fill:#d5d0ca;fill-opacity:1;fill-rule:nonzero;stroke:none"
         id="path498" /><path
         d="m 1604.9,629.719 -356.86,206 -4.67,-8.071 356.7,-213.628 4.83,15.699"
         style="fill:#9d9991;fill-opacity:1;fill-rule:nonzero;stroke:none"
         id="path500" /><path
         d="m 1600.07,621.551 -356.7,206.097 v -7.726 l 356.7,-205.902 v 7.531"
         style="fill:#8a8680;fill-opacity:1;fill-rule:nonzero;stroke:none"
         id="path502" /><path
         d="m 1604.9,611.352 -4.83,2.668 v 7.531 l 4.83,8.168 6.65,3.941 4.61,-2.789 v -7.672 l -4.61,-8.129 -6.65,-3.718"
         style="fill:#c4beb2;fill-opacity:1;fill-rule:nonzero;stroke:none"
         id="path504" /><path
         d="m 2095.23,2646.85 65.24,37.55 -28.05,16.16 -65.3,-37.56 28.11,-16.15"
         style="fill:#d5d0ca;fill-opacity:1;fill-rule:nonzero;stroke:none"
         id="path506" /><path
         d="m 1511.47,298.781 28.24,-16.152 86.61,215.301 489.58,2131.27 -20.67,17.65 -28.11,16.15 -555.65,-2364.219"
         style="fill:#8a8680;fill-opacity:1;fill-rule:nonzero;stroke:none"
         id="path508" /><path
         d="m 1539.71,282.629 65.15,37.531 555.61,2364.24 -65.24,-37.55 -555.52,-2364.221"
         style="fill:#c4beb2;fill-opacity:1;fill-rule:nonzero;stroke:none"
         id="path510" /><path
         d="m 1308.57,778.949 21.65,6.16 23.48,9.621 45.64,-8.128 v -7.653 l -25.1,-41.398 -55.69,-31.742 -30.14,-45.547 -29.81,-20.141 -28.56,13.199 v 7.621 l 4.43,48.77 74.1,69.238"
         style="fill:#1a1516;fill-opacity:1;fill-rule:nonzero;stroke:none"
         id="path512" /><path
         d="m 1518.35,948.52 31.04,-8.309 25.71,-27.152 v -7.731 l -7.25,-15.828 -33.5,-8.48 -43.74,0.859 -39.73,-8.18 -33.27,5.281 -12.5,19.411 v 7.718 l 113.24,42.411"
         style="fill:#1a1516;fill-opacity:1;fill-rule:nonzero;stroke:none"
         id="path514" /><path
         d="m 1416.78,1859.61 40.37,17.08 36.14,23.23 13.75,-6.69 7.24,-25.03 -5.95,-8.59 -35.3,-25.09 -66.45,-62.39 -34.84,-22.1 h -20.81 v 100.86 l 65.85,8.72"
         style="fill:#e2ad9d;fill-opacity:1;fill-rule:nonzero;stroke:none"
         id="path516" /><path
         d="m 1416.78,1859.61 3.09,-12.33 -11.63,-20.49 -19.65,-1.76 -18.18,-72.05 -8.95,-6.37 v 54.15 l 27.13,61.62 28.19,-2.77"
         style="fill:#b28a7f;fill-opacity:1;fill-rule:nonzero;stroke:none"
         id="path518" /><path
         d="m 1508.33,1859.61 -3.83,22.08 -11.21,18.23 43.41,41.88 34.75,14.44 31.38,-6.18 21.09,-35.81 -9.27,-10.1 -29.31,-1.02 -33.08,-21.14 14.07,-5.9 18.64,1.52 1.62,-11.33 -29.21,-10.4 -28.33,3.73 h -20.72"
         style="fill:#edeeeb;fill-opacity:1;fill-rule:nonzero;stroke:none"
         id="path520" /><path
         d="m 1245.73,1807.73 -52.42,9.74 -42.36,-4.97 -23.72,-16.72 -13.43,-34.59 13.43,-25.86 15.46,-16.89 103.04,89.29"
         style="fill:#e7e1d7;fill-opacity:1;fill-rule:nonzero;stroke:none"
         id="path522" /><path
         d="m 1382.68,1830.36 -12.27,-77.38 -27.5,-19.66 -56.76,2.01 -30.22,35.46 -3.61,39.43 16.29,13.7 20.17,44.28 93.9,-7.36 v -30.48"
         style="fill:#e2ad9d;fill-opacity:1;fill-rule:nonzero;stroke:none"
         id="path524" /><path
         d="m 1381.8,1418.47 28.38,60.74 19.29,68.91 -50.62,-6.18 -40.88,-149.92 h 27.31 l 16.52,26.45"
         style="fill:#2c506e;fill-opacity:1;fill-rule:nonzero;stroke:none"
         id="path526" /><path
         d="m 1414.8,1695.83 -13.2,12.7 -35.49,8.94 12.74,17.86 -8.44,17.65 -24,-3.05 -41.34,9.62 -33.32,16.66 -19.43,34.01 -26.16,-4.61 -4.66,4.61 -26.99,-4.61 -33.27,-22.49 -21.64,-47.79 -12.37,-53.41 7.66,-85.62 52.65,-65.92 33.96,-79.66 49.52,-37.96 62.7,-14.53 40.1,6.37 18.36,66.14 37.29,69.66 -14.67,155.43"
         style="fill:#edeeeb;fill-opacity:1;fill-rule:nonzero;stroke:none"
         id="path528" /><path
         d="m 1308.57,786.602 21.65,6.226 23.48,9.621 h 31.79 l 13.85,-15.847 -25.1,-41.25 -55.69,-31.731 -30.14,-45.652 -29.81,-20.117 -28.56,13.089 1.98,36.047 2.45,20.352 74.1,69.262"
         style="fill:#edeeeb;fill-opacity:1;fill-rule:nonzero;stroke:none"
         id="path530" /><path
         d="m 1092.31,1230.94 74.93,-229.29 -9.23,-79.638 68.75,-201.043 29.35,-13.867 51.21,31.578 4.72,41.718 -37.65,171.262 3.4,72.39 v 162.55 l -107.28,60.07 -78.2,-15.73"
         style="fill:#7d2695;fill-opacity:1;fill-rule:nonzero;stroke:none"
         id="path532" /><path
         d="m 1697.71,1607.63 14.53,62.57 24.31,17.42 34.43,-3.53 41.43,-44.46 0.74,-11.7 -11.58,-0.99 -17.08,10.11 -27.22,-56.16 -22.38,-12.48 -31.51,12.48 -5.67,26.74"
         style="fill:#edeeeb;fill-opacity:1;fill-rule:nonzero;stroke:none"
         id="path534" /><path
         d="m 1518.62,1564.82 48.77,-68.46 32.44,30.33 64.46,48.43 33.42,32.51 12.41,-4.9 21.68,-21.5 3.09,-12.82 -88.64,-127.18 -31.6,-26.76 -84.91,-9.87 -91.36,101.54 20.25,59.78 59.99,-1.1"
         style="fill:#e2ad9d;fill-opacity:1;fill-rule:nonzero;stroke:none"
         id="path536" /><path
         d="m 1412.81,1956.38 4.34,-22.08 -4.34,-16.59 7.06,-12 -3.55,-54.07 -10.8,-16.31 -22.84,-4.97 -18.91,7.66 -25.8,13.62 11.07,117.75 63.77,-13.01"
         style="fill:#e2ad9d;fill-opacity:1;fill-rule:nonzero;stroke:none"
         id="path538" /><path
         d="m 1305.07,2021.03 40.19,15.64 47.06,-27.75 16.29,-18.37 6.19,-21.85 -6.97,-41.81 -14.58,-16.26 v -20.81 l -4.66,-6.21 h -20.17 l -8.44,-21.59 3.79,-24 -12.33,-22.42 -22.43,-9.99 h -31.7 l -30.17,19.31 -34.8,54.03 -10.84,53.44 6.19,37 19.33,22.57 40.24,30.06 17.81,-0.99"
         style="fill:#7f3c31;fill-opacity:1;fill-rule:nonzero;stroke:none"
         id="path540" /><path
         d="m 1305.07,2021.03 -44.43,-32.6 -25.2,-46.03 34.79,43.23 34.84,35.4"
         style="fill:#52221d;fill-opacity:1;fill-rule:nonzero;stroke:none"
         id="path542" /><path
         d="m 1387.02,1699.73 -21.74,-26.39 -3.82,-39.37 25.56,-49.51 47.89,-78.84 36.32,5.43 42.5,29.35 5.49,26.97 -52.7,96.69 -34.19,29.28 -45.31,6.39"
         style="fill:#e7e1d7;fill-opacity:1;fill-rule:nonzero;stroke:none"
         id="path544" /><path
         d="m 1401.6,1708.53 -58.69,-18.9 -37.34,-35.1 -13.38,-51.8 -27.87,17.34 12.92,49.41 37.06,40.29 64.55,25.56 22.75,-26.8"
         style="fill:#7d2695;fill-opacity:1;fill-rule:nonzero;stroke:none"
         id="path546" /><path
         d="m 1252.32,1810.22 -34.93,-42.22 -25.24,-46.69 -7.19,-60.87 -27.87,17.39 6.69,58.38 28.33,53.87 29.39,20.14 h 30.82"
         style="fill:#7d2695;fill-opacity:1;fill-rule:nonzero;stroke:none"
         id="path548" /><path
         d="m 1518.35,956.199 31.04,-8.328 25.71,-12.832 v -21.98 l -7.25,-15.848 -33.5,-8.473 -43.74,0.973 -39.73,-8.242 -33.27,5.242 -12.5,19.398 17.95,46.911 95.29,3.179"
         style="fill:#edeeeb;fill-opacity:1;fill-rule:nonzero;stroke:none"
         id="path550" /><path
         d="m 1314.3,1611.57 -92.8,40.96 -74.1,43.3 -12.93,-103.61 -1.01,-106.73 -14.49,-51.43 -31.15,-81.48 -3.92,-112.94 30.96,-32.51 162.93,-42.22 69.04,12.37 145.3,33.05 -13.38,-35.09 -62.85,-215.459 33.96,-31.859 h 63.87 l 16.61,24.68 32.94,122.608 66.04,171.46 -12.65,45.57 -30.08,31.44 -145.49,28.9 -72.68,0.98 13.38,64.91 -20.34,-6.69 -19.85,7.72 -34.29,45.33 -5.39,75.76 12.37,70.98"
         style="fill:#85309c;fill-opacity:1;fill-rule:nonzero;stroke:none"
         id="path552" /><path
         d="m 1492.13,1210.33 94.46,31.89 -15.14,-22.61 z"
         style="fill:#2c506e;fill-opacity:1;fill-rule:nonzero;stroke:none"
         id="path554" /><path
         d="m 1567.39,1496.36 3.6,-33.27 15.6,5.42 z"
         style="fill:#b28a7f;fill-opacity:1;fill-rule:nonzero;stroke:none"
         id="path556" /><g
         id="g558"><g
           id="g560"
           clip-path="url(#clipPath564)"><path
             d="M 343.809,1220.69 H 503.61 v 94.3672 H 343.809 Z"
             style="fill:#a5a7a6;fill-opacity:1;fill-rule:nonzero;stroke:none"
             id="path566" /></g></g><path
         d="m 255.727,1395.44 43.375,-13.71 -11.954,-70.8 -31.421,18.15 v 66.36"
         style="fill:#7a258f;fill-opacity:1;fill-rule:nonzero;stroke:none"
         id="path568" /><path
         d="m 560.176,1377.21 7.203,12.49 24.273,5.74 v -66.36 l -31.476,-18.15 v 66.28"
         style="fill:#8b369f;fill-opacity:1;fill-rule:nonzero;stroke:none"
         id="path570" /><path
         d="m 229.934,1308.9 h 44.48 l 0.047,-66.36 h -44.527 v 66.36"
         style="fill:#8a359f;fill-opacity:1;fill-rule:nonzero;stroke:none"
         id="path572" /><path
         d="m 274.414,1308.9 12.734,-17.77 8.442,-32.76 -8.399,-33.53 -12.73,17.7 -0.047,66.36"
         style="fill:#7a258f;fill-opacity:1;fill-rule:nonzero;stroke:none"
         id="path574" /><path
         d="m 455.711,1378.88 55.738,-25.59 -8.676,-67.88 -47.062,27.09 -6.508,27.4 6.508,38.98"
         style="fill:#7a258f;fill-opacity:1;fill-rule:nonzero;stroke:none"
         id="path576" /><path
         d="m 343.859,1356.77 47.758,22.03 11.953,-26.37 -11.953,-39.86 -26.625,-15.32 -23.574,15.06 2.441,44.46"
         style="fill:#8b369f;fill-opacity:1;fill-rule:nonzero;stroke:none"
         id="path578" /><path
         d="m 572.867,1308.9 16.473,7.17 28.144,-7.17 v -66.36 h -44.617 v 66.36"
         style="fill:#8a359f;fill-opacity:1;fill-rule:nonzero;stroke:none"
         id="path580" /><path
         d="m 560.227,1291.08 12.64,17.82 v -66.36 l -12.64,-17.7 v 66.24"
         style="fill:#8b369f;fill-opacity:1;fill-rule:nonzero;stroke:none"
         id="path582" /><path
         d="m 346.352,1315.73 -0.047,37 45.312,26.07 64.094,0.08 45.359,-26.15 -0.05,-37 -45.309,-26.19 h -64.094 z m -59.204,-24.6 -31.421,-18.15 61.875,-35.72 31.562,18.11 30.684,-7.29 v -25.78 h 87.672 l -0.043,25.72 30.734,7.35 31.512,-18.11 61.929,35.72 -31.425,18.1 12.64,17.82 h 44.617 l -0.043,50.61 h -44.574 l -12.691,17.7 31.476,18.23 -61.929,35.76 -31.512,-18.22 -30.734,7.35 v 25.72 h -87.629 v -25.72 l -30.684,-7.35 -31.562,18.22 -61.875,-35.76 31.464,-18.23 -12.64,-17.7 h -44.617 v -50.61 h 44.48 l 12.734,-17.77"
         style="fill:#85309c;fill-opacity:1;fill-rule:nonzero;stroke:none"
         id="path584" /><path
         d="m 529.723,1237.26 61.929,35.72 v -66.36 l -61.929,-35.71 v 66.35"
         style="fill:#8b369f;fill-opacity:1;fill-rule:nonzero;stroke:none"
         id="path586" /><path
         d="m 379.848,1222.3 h 87.672 l -0.043,-66.26 h -87.629 v 66.26"
         style="fill:#8b369f;fill-opacity:1;fill-rule:nonzero;stroke:none"
         id="path588" /><path
         d="m 255.727,1272.98 61.875,-35.72 v -66.4 l -61.875,35.76 v 66.36"
         style="fill:#7a258f;fill-opacity:1;fill-rule:nonzero;stroke:none"
         id="path590" /><path
         d="m 498.211,1255.37 31.512,-18.11 v -66.35 l -31.512,18.22 v 66.24"
         style="fill:#7a258f;fill-opacity:1;fill-rule:nonzero;stroke:none"
         id="path592" /><path
         d="m 349.164,1255.37 30.684,-7.29 v -66.38 l -30.684,7.43 v 66.24"
         style="fill:#8a359f;fill-opacity:1;fill-rule:nonzero;stroke:none"
         id="path594" /><path
         d="m 391.617,1378.8 64.094,0.08 v -66.38 l -64.094,0.07 v 66.23"
         style="fill:#7d2695;fill-opacity:1;fill-rule:nonzero;stroke:none"
         id="path596" /><path
         d="m 467.477,1248.02 30.734,7.35 v -66.24 l -30.734,-7.43 v 66.32"
         style="fill:#8a359f;fill-opacity:1;fill-rule:nonzero;stroke:none"
         id="path598" /><path
         d="m 317.602,1237.26 31.562,18.11 v -66.24 l -31.562,-18.27 v 66.4"
         style="fill:#8b369f;fill-opacity:1;fill-rule:nonzero;stroke:none"
         id="path600" /><path
         d="m 539.738,926.551 h -40.605 l -29.348,16.918 v 24.801 l 29.348,16.89 h 40.605 l 29.258,-16.89 v -24.801 l -29.258,-16.918 m -39.82,55.488 -27.039,-15.57 v -21.188 l 27.039,-15.562 h 38.988 l 26.992,15.562 v 21.188 l -26.992,15.57 h -38.988"
         style="fill:#a5a7a6;fill-opacity:1;fill-rule:nonzero;stroke:none"
         id="path602" /><path
         d="m 415.102,1035.08 26.906,-8.51 -7.387,-43.949 -19.519,11.258 v 41.201"
         style="fill:#7a258f;fill-opacity:1;fill-rule:nonzero;stroke:none"
         id="path604" /><path
         d="m 604.25,1023.76 4.422,7.74 15.09,3.58 0.047,-41.201 -19.559,-11.258 v 41.139"
         style="fill:#8b369f;fill-opacity:1;fill-rule:nonzero;stroke:none"
         id="path606" /><path
         d="m 399.047,981.379 h 27.644 l 0.039,-41.25 h -27.683 v 41.25"
         style="fill:#8a359f;fill-opacity:1;fill-rule:nonzero;stroke:none"
         id="path608" /><path
         d="m 426.691,981.379 7.93,-11.09 5.219,-20.34 -5.219,-20.808 -7.891,10.988 -0.039,41.25"
         style="fill:#7a258f;fill-opacity:1;fill-rule:nonzero;stroke:none"
         id="path610" /><path
         d="m 539.316,1024.79 34.661,-15.87 -5.446,-42.131 -29.215,16.801 -4.058,17.03 4.058,24.17"
         style="fill:#7a258f;fill-opacity:1;fill-rule:nonzero;stroke:none"
         id="path612" /><path
         d="m 469.828,1011.09 29.676,13.7 7.426,-16.42 -7.426,-24.722 -16.52,-9.519 -14.679,9.34 1.523,27.621"
         style="fill:#8b369f;fill-opacity:1;fill-rule:nonzero;stroke:none"
         id="path614" /><path
         d="m 612.141,981.379 10.144,4.422 17.492,-4.422 v -41.25 H 612.09 l 0.051,41.25"
         style="fill:#8a359f;fill-opacity:1;fill-rule:nonzero;stroke:none"
         id="path616" /><path
         d="m 604.25,970.289 7.891,11.09 -0.051,-41.25 -7.84,-10.988 v 41.148"
         style="fill:#8b369f;fill-opacity:1;fill-rule:nonzero;stroke:none"
         id="path618" /><path
         d="m 471.352,985.582 v 22.988 l 28.152,16.22 h 39.812 l 28.149,-16.22 -0.043,-22.988 -28.106,-16.223 h -39.812 z m -36.731,-15.242 -19.519,-11.281 38.488,-22.207 19.515,11.23 19.106,-4.5 v -16.031 h 54.445 l -0.043,15.988 19.102,4.609 19.562,-11.296 38.532,22.207 -19.559,11.23 7.891,11.09 h 27.636 v 31.411 h -27.636 l -7.891,10.97 19.512,11.32 -38.485,22.22 -19.562,-11.27 -19.102,4.54 v 16 h -54.402 v -16 l -19.106,-4.54 -19.515,11.27 -38.488,-22.22 19.519,-11.26 -7.844,-11.03 h -27.73 v -31.411 h 27.644 l 7.93,-11.039"
         style="fill:#85309c;fill-opacity:1;fill-rule:nonzero;stroke:none"
         id="path620" /><path
         d="m 585.277,936.852 38.532,22.207 v -41.25 l -38.532,-22.207 v 41.25"
         style="fill:#8b369f;fill-opacity:1;fill-rule:nonzero;stroke:none"
         id="path622" /><path
         d="m 492.211,927.551 h 54.445 l -0.043,-41.16 h -54.402 v 41.16"
         style="fill:#8b369f;fill-opacity:1;fill-rule:nonzero;stroke:none"
         id="path624" /><path
         d="m 415.102,959.059 38.488,-22.207 v -41.25 l -38.488,22.207 v 41.25"
         style="fill:#7a258f;fill-opacity:1;fill-rule:nonzero;stroke:none"
         id="path626" /><path
         d="m 565.715,948.148 19.562,-11.296 v -41.25 l -19.562,11.339 v 41.207"
         style="fill:#7a258f;fill-opacity:1;fill-rule:nonzero;stroke:none"
         id="path628" /><path
         d="m 473.105,948.082 19.106,-4.5 V 902.32 l -19.106,4.621 v 41.141"
         style="fill:#8a359f;fill-opacity:1;fill-rule:nonzero;stroke:none"
         id="path630" /><path
         d="m 499.504,1024.79 h 39.812 v -41.2 l -39.812,0.058 v 41.142"
         style="fill:#7d2695;fill-opacity:1;fill-rule:nonzero;stroke:none"
         id="path632" /><path
         d="m 546.613,943.539 19.102,4.609 v -41.207 l -19.102,-4.543 v 41.141"
         style="fill:#8a359f;fill-opacity:1;fill-rule:nonzero;stroke:none"
         id="path634" /><path
         d="m 453.59,936.852 19.515,11.23 V 906.941 L 453.59,895.602 v 41.25"
         style="fill:#8b369f;fill-opacity:1;fill-rule:nonzero;stroke:none"
         id="path636" /><path
         d="m 2744.92,391.941 13.38,-7.711 -18.31,-34.531 -43.85,-10.969 -217.74,-126.218 -20.44,11.789 v 11.328 l 17.26,-1.27 200.53,116.192 18.74,25.238 50.43,16.152"
         style="fill:#bdbfbd;fill-opacity:1;fill-rule:nonzero;stroke:none"
         id="path638" /><path
         d="m 2744.92,391.941 13.38,-7.711 -18.31,-23.14 -43.85,-10.949 -217.83,-126.25 -20.35,11.738 217.79,126.242 18.78,25.32 50.39,4.75"
         style="fill:#e7e1d7;fill-opacity:1;fill-rule:nonzero;stroke:none"
         id="path640" /><path
         d="m 2461.51,250.23 24.17,-41.8 0.05,-39.41 -24.08,-14.032 -34.2,19.731 -24.22,41.781 -0.05,39.441 24.1,13.899 34.23,-19.61"
         style="fill:#1a1516;fill-opacity:1;fill-rule:nonzero;stroke:none"
         id="path642" /><path
         d="m 2485.68,208.43 0.05,-39.41 27,15.742 -0.04,39.398 -23.82,-8.18 -3.19,-7.55"
         style="fill:#0a0b0b;fill-opacity:1;fill-rule:nonzero;stroke:none"
         id="path644" /><path
         d="m 2461.51,250.23 24.17,-41.8 27.01,15.73 -24.23,41.809 -18.78,-2.629 -8.17,-13.11"
         style="fill:#231c1b;fill-opacity:1;fill-rule:nonzero;stroke:none"
         id="path646" /><path
         d="m 2427.28,269.84 34.23,-19.61 26.95,15.739 -34.14,19.562 -27.04,-15.691"
         style="fill:#3f3432;fill-opacity:1;fill-rule:nonzero;stroke:none"
         id="path648" /><path
         d="m 2302.82,106.871 0.1,-33.4608 173.91,101.1488 -0.05,33.433 -171.23,-94.64 -2.73,-6.481"
         style="fill:#0a0b0b;fill-opacity:1;fill-rule:nonzero;stroke:none"
         id="path650" /><path
         d="m 2451.45,180 v -7.719 l -4.7,-8.222 -110.94,-63.84 -4.66,2.773 v 0.809 l 110.15,63.629 4.76,8.101 v 6.801 l 0.69,0.406 4.7,-2.738"
         style="fill:#3f3432;fill-opacity:1;fill-rule:nonzero;stroke:none"
         id="path652" /><path
         d="m 2446.06,182.332 v -6.801 l -4.76,-8.101 -110.15,-63.629 v 6.82 l 4.66,8.25 110.25,63.461"
         style="fill:#85309c;fill-opacity:1;fill-rule:nonzero;stroke:none"
         id="path654" /><path
         d="m 2237.9,64.4805 45.77,-2.2305 19.25,11.1602 -5.35,16.1015 -63.78,-6.0312 4.11,-19"
         style="fill:#85309c;fill-opacity:1;fill-rule:nonzero;stroke:none"
         id="path656" /><path
         d="m 2213.08,107.332 20.85,40.75 19.24,11.109 11.35,-12.64 -37,-52.1994 -14.44,12.9804"
         style="fill:#85339d;fill-opacity:1;fill-rule:nonzero;stroke:none"
         id="path658" /><path
         d="m 2302.92,73.4102 -54.73,-3.0196 -9.32,4.2891 2.08,15.6719 66.12,33.2184 11.86,-26.9489 -16.01,-23.2109"
         style="fill:#0a0b0b;fill-opacity:1;fill-rule:nonzero;stroke:none"
         id="path660" /><path
         d="m 2253.17,159.191 -29.85,-45.91 -0.88,-10.242 14.63,-5.9492 61.65,40.7812 -17.44,23.738 -28.11,-2.418"
         style="fill:#3f3432;fill-opacity:1;fill-rule:nonzero;stroke:none"
         id="path662" /><path
         d="m 2302.82,106.871 -54.63,-19.7812 -17.58,1.8086 7.24,16.0316 44.35,37.531 20.67,-11.742 -0.05,-23.848"
         style="fill:#7d2695;fill-opacity:1;fill-rule:nonzero;stroke:none"
         id="path664" /><path
         d="m 2282.2,142.461 20.62,-35.59 173.96,101.121 -20.58,35.457 -166.99,-89.867 -7.01,-11.121"
         style="fill:#7d2695;fill-opacity:1;fill-rule:nonzero;stroke:none"
         id="path666" /><path
         d="m 2253.17,159.191 29.03,-16.73 174,100.988 -29.02,16.77 -174.01,-101.028"
         style="fill:#3f3432;fill-opacity:1;fill-rule:nonzero;stroke:none"
         id="path668" /><path
         d="m 2418.64,235.371 v -5.492 l -6.74,3.582 h -9.41 l -111.01,-63.91 -0.38,0.25 v 5.39 l 111.39,64.02 h 9.41 l 6.74,-3.84"
         style="fill:#1a1516;fill-opacity:1;fill-rule:nonzero;stroke:none"
         id="path670" /><path
         d="m 2418.46,229.75 -111.2,-63.941 h -9.47 l -6.31,3.742 111.01,63.91 h 9.41 l 6.56,-3.711"
         style="fill:#8b369f;fill-opacity:1;fill-rule:nonzero;stroke:none"
         id="path672" /><path
         d="m 2213.08,90.6211 10.33,-17.832 14.49,-8.3086 10.29,5.9101 v 16.6992 l -10.34,17.8402 -14.53,8.351 -10.24,-5.949 V 90.6211"
         style="fill:#231c1b;fill-opacity:1;fill-rule:nonzero;stroke:none"
         id="path674" /><path
         d="m 2220.04,229.422 13.34,-7.703 -18.37,-34.52 -43.83,-10.98 -113.79,-66.239 -20.49,11.79 v 11.332 l 17.35,-1.34 96.63,56.199 18.63,25.379 50.53,16.082"
         style="fill:#bdbfbd;fill-opacity:1;fill-rule:nonzero;stroke:none"
         id="path676" /><path
         d="m 2220.04,229.422 13.34,-7.703 -18.37,-23.188 -43.83,-10.91 -113.79,-66.262 -20.49,11.743 113.88,66.257 18.73,25.313 50.53,4.75"
         style="fill:#e7e1d7;fill-opacity:1;fill-rule:nonzero;stroke:none"
         id="path678" /><path
         d="m 2040.5,147.691 24.18,-41.769 0.09,-39.4337 -24.18,-13.957 -34.14,19.6601 -24.23,41.7576 -0.04,39.41 24.13,14 34.19,-19.668"
         style="fill:#1a1516;fill-opacity:1;fill-rule:nonzero;stroke:none"
         id="path680" /><path
         d="m 2064.68,105.922 0.09,-39.4337 27,15.7422 -0.05,39.3785 -23.81,-8.121 -3.23,-7.566"
         style="fill:#0a0b0b;fill-opacity:1;fill-rule:nonzero;stroke:none"
         id="path682" /><path
         d="m 2040.5,147.691 24.18,-41.769 27.04,15.687 -24.23,41.832 -18.78,-2.609 -8.21,-13.141"
         style="fill:#231c1b;fill-opacity:1;fill-rule:nonzero;stroke:none"
         id="path684" /><path
         d="m 2006.31,167.359 34.19,-19.668 26.99,15.75 -34.09,19.61 -27.09,-15.692"
         style="fill:#3f3432;fill-opacity:1;fill-rule:nonzero;stroke:none"
         id="path686" /><path
         d="m 1949.87,44.6016 0.09,-33.4414 105.9,60.8711 -0.09,33.4297 -103.17,-54.4102 -2.73,-6.4492"
         style="fill:#0a0b0b;fill-opacity:1;fill-rule:nonzero;stroke:none"
         id="path688" /><path
         d="m 2041.19,83.3984 v -7.5898 l -4.8,-8.2773 -61.56,-35.5118 -4.7,2.75 v 0.8321 l 60.87,35.2968 4.75,8.1133 v 6.7891 l 0.64,0.418 4.8,-2.8204"
         style="fill:#3f3432;fill-opacity:1;fill-rule:nonzero;stroke:none"
         id="path690" /><path
         d="M 2035.75,85.8008 V 79.0117 L 2031,70.8984 1970.13,35.6016 v 6.7773 l 4.7,8.25 60.92,35.1719"
         style="fill:#85309c;fill-opacity:1;fill-rule:nonzero;stroke:none"
         id="path692" /><path
         d="M 1884.99,2.17188 1930.77,0 l 19.19,11.1602 -5.3,16.1093 -63.82,-6.1211 4.15,-18.97652"
         style="fill:#85309c;fill-opacity:1;fill-rule:nonzero;stroke:none"
         id="path694" /><path
         d="m 1860.13,45.0586 20.9,40.7422 19.2,11.1211 11.39,-12.6211 -37.05,-52.2813 -14.44,13.0391"
         style="fill:#85339d;fill-opacity:1;fill-rule:nonzero;stroke:none"
         id="path696" /><path
         d="m 1949.96,11.1602 -54.73,-3.05864 -9.31,4.25784 2.12,15.7226 66.12,33.2383 11.91,-26.9883 -16.11,-23.1718"
         style="fill:#0a0b0b;fill-opacity:1;fill-rule:nonzero;stroke:none"
         id="path698" /><path
         d="m 1900.23,96.9219 -29.86,-45.9024 -0.88,-10.3007 14.72,-5.9493 61.6,40.8399 -17.44,23.7617 -28.14,-2.4492"
         style="fill:#3f3432;fill-opacity:1;fill-rule:nonzero;stroke:none"
         id="path700" /><path
         d="m 1949.87,44.6016 -54.64,-19.7813 -17.52,1.7578 7.19,16.1133 44.39,37.5195 20.63,-11.7304 -0.05,-23.8789"
         style="fill:#7d2695;fill-opacity:1;fill-rule:nonzero;stroke:none"
         id="path702" /><path
         d="m 1929.29,80.2109 20.58,-35.6093 105.9,60.8594 -20.54,35.508 -98.97,-49.6292 -6.97,-11.1289"
         style="fill:#7d2695;fill-opacity:1;fill-rule:nonzero;stroke:none"
         id="path704" /><path
         d="m 1900.23,96.9219 29.06,-16.711 105.94,60.7581 -29.02,16.761 -105.98,-60.8081"
         style="fill:#3f3432;fill-opacity:1;fill-rule:nonzero;stroke:none"
         id="path706" /><path
         d="m 2008.29,138.871 v -5.5 l -6.69,3.551 h -9.41 l -61.7,-35.59 -0.41,0.246 v 5.371 l 62.11,35.731 h 9.41 l 6.69,-3.809"
         style="fill:#1a1516;fill-opacity:1;fill-rule:nonzero;stroke:none"
         id="path708" /><path
         d="m 2008.06,133.262 -61.79,-35.6722 h -9.45 l -6.33,3.7422 61.7,35.59 h 9.41 l 6.46,-3.66"
         style="fill:#8b369f;fill-opacity:1;fill-rule:nonzero;stroke:none"
         id="path710" /><path
         d="m 1860.17,28.2813 10.34,-17.7813 14.48,-8.32812 10.24,5.92968 V 24.8203 l -10.33,17.8711 -14.53,8.3281 -10.24,-5.9609 0.04,-16.7773"
         style="fill:#231c1b;fill-opacity:1;fill-rule:nonzero;stroke:none"
         id="path712" /><path
         d="m 651.078,552.98 h -26.992 l -20.07,11.579 v 17.953 l 20.023,11.597 h 27.039 l 20.027,-11.597 V 564.559 L 651.078,552.98 m -25.558,35.508 -15.969,-9.226 V 567.77 l 15.969,-9.231 h 24.035 l 15.925,9.231 v 11.492 l -15.925,9.226 H 625.52"
         style="fill:#a5a7a6;fill-opacity:1;fill-rule:nonzero;stroke:none"
         id="path714" /><path
         d="m 686.055,561.969 -28.422,-16.438 -4.063,21.77 15.688,7.758 16.797,6.062 v -19.152"
         style="fill:#8a8680;fill-opacity:1;fill-rule:nonzero;stroke:none"
         id="path716" /><path
         d="m 1090.27,810.461 -8.72,-28.012 -7.15,16.77 5.67,19.89 10.2,10.571 v -19.219"
         style="fill:#9d9991;fill-opacity:1;fill-rule:nonzero;stroke:none"
         id="path718" /><path
         d="m 1032.54,832.512 -19.6,-25.512 -7.11,16.82 16.52,17.282 10.19,10.558 v -19.148"
         style="fill:#9d9991;fill-opacity:1;fill-rule:nonzero;stroke:none"
         id="path720" /><path
         d="m 1081.55,782.449 -14.82,-8.578 -7.14,16.731 5.12,4.957 16.84,6.062 v -19.172"
         style="fill:#8a8680;fill-opacity:1;fill-rule:nonzero;stroke:none"
         id="path722" /><path
         d="m 1066.73,773.871 -51.39,-1.41 -7.02,26.09 40.1,-1.84 18.31,-3.652 v -19.188"
         style="fill:#9d9991;fill-opacity:1;fill-rule:nonzero;stroke:none"
         id="path724" /><path
         d="m 1015.34,772.461 -329.235,-190.09 0.047,19.188 159.512,106.621 169.676,83.5 v -19.219"
         style="fill:#8a8680;fill-opacity:1;fill-rule:nonzero;stroke:none"
         id="path726" /><path
         d="m 657.633,545.531 h -40.149 l -4.656,24.68 26.488,-1.891 18.317,-3.601 v -19.188"
         style="fill:#9d9991;fill-opacity:1;fill-rule:nonzero;stroke:none"
         id="path728" /><path
         d="m 617.484,545.531 -28.421,16.438 v 19.152 l 15.187,-4.379 13.234,-12.023 v -19.188"
         style="fill:#c4beb2;fill-opacity:1;fill-rule:nonzero;stroke:none"
         id="path730" /><path
         d="m 650.297,591.32 h -25.473 v 19.16 l 14.258,4.329 11.215,-4.329 v -19.16"
         style="fill:#9d9991;fill-opacity:1;fill-rule:nonzero;stroke:none"
         id="path732" /><path
         d="m 624.824,591.32 -17.992,-10.398 -4.848,15.25 5.493,11.82 17.347,2.488 v -19.16"
         style="fill:#8a8680;fill-opacity:1;fill-rule:nonzero;stroke:none"
         id="path734" /><path
         d="m 650.297,591.32 17.996,-10.398 4.848,15.25 -5.493,11.82 -17.351,2.488 v -19.16"
         style="fill:#c4beb2;fill-opacity:1;fill-rule:nonzero;stroke:none"
         id="path736" /><path
         d="m 668.34,585.371 -18.043,-10.41 h -25.473 l -17.992,10.41 v 14.699 l 17.992,10.41 h 25.473 l 18.043,-10.41 z m 412.89,252.688 -19.71,-24.969 -30.45,0.531 -18.13,12.57 19.6,25.469 -26.89,-5.578 -23.49,-13.613 V 810.832 L 652.926,620.762 617.484,620.719 589.063,604.32 v -23.199 l 28.421,-16.402 h 40.149 l 28.422,16.402 v 20.52 l 329.285,190.039 51.39,1.379 14.82,8.562 8.72,28.059 -9.04,8.379"
         style="fill:#d5d0ca;fill-opacity:1;fill-rule:nonzero;stroke:none"
         id="path738" /><path
         d="m 907.824,743.34 v -2.699 l -9.461,5.418 H 885.07 L 743.645,664.41 v 2.68 l 141.425,81.629 h 13.293 l 9.461,-5.379"
         style="fill:#9d9991;fill-opacity:1;fill-rule:nonzero;stroke:none"
         id="path740" /><path
         d="m 907.824,740.641 v -5.02 L 766.305,654.012 h -13.293 l -9.367,5.367 v 5.031 l 141.425,81.649 h 13.293 l 9.461,-5.418"
         style="fill:#c4beb2;fill-opacity:1;fill-rule:nonzero;stroke:none"
         id="path742" /><path
         d="m 388.391,519.891 h -22.664 l -16.797,9.668 v 15.07 l 16.797,9.73 h 22.613 l 16.797,-9.73 v -15.07 l -16.746,-9.668 m -21.414,29.82 -13.383,-7.762 v -9.648 l 13.383,-7.699 h 20.117 l 13.429,7.699 v 9.648 l -13.429,7.762 h -20.117"
         style="fill:#a5a7a6;fill-opacity:1;fill-rule:nonzero;stroke:none"
         id="path744" /><path
         d="m 417.734,527.391 -23.855,-13.77 -3.418,18.27 13.152,6.531 14.121,5.078 v -16.109"
         style="fill:#8a8680;fill-opacity:1;fill-rule:nonzero;stroke:none"
         id="path746" /><path
         d="m 756.887,735.941 -7.379,-23.562 -5.957,14.141 4.754,16.66 8.582,8.859 v -16.098"
         style="fill:#9d9991;fill-opacity:1;fill-rule:nonzero;stroke:none"
         id="path748" /><path
         d="m 708.48,754.41 -16.468,-21.379 -6,14.098 13.933,14.531 8.535,8.84 v -16.09"
         style="fill:#9d9991;fill-opacity:1;fill-rule:nonzero;stroke:none"
         id="path750" /><path
         d="m 749.508,712.379 -12.418,-7.149 -5.953,14.051 4.293,4.129 14.078,5.078 v -16.109"
         style="fill:#8a8680;fill-opacity:1;fill-rule:nonzero;stroke:none"
         id="path752" /><path
         d="m 737.09,705.23 -43.047,-1.179 -5.863,21.847 33.593,-1.558 15.317,-3.078 V 705.23"
         style="fill:#9d9991;fill-opacity:1;fill-rule:nonzero;stroke:none"
         id="path754" /><path
         d="M 694.043,704.051 417.777,544.582 v 16.078 l 133.914,89.449 142.352,70.032 v -16.09"
         style="fill:#8a8680;fill-opacity:1;fill-rule:nonzero;stroke:none"
         id="path756" /><path
         d="m 393.879,513.621 h -33.688 l -3.871,20.719 22.239,-1.551 15.32,-3.059 v -16.109"
         style="fill:#9d9991;fill-opacity:1;fill-rule:nonzero;stroke:none"
         id="path758" /><path
         d="m 360.191,513.621 -23.808,13.77 V 543.5 l 12.644,-3.738 11.164,-10.032 v -16.109"
         style="fill:#c4beb2;fill-opacity:1;fill-rule:nonzero;stroke:none"
         id="path760" /><path
         d="m 387.738,552.031 h -21.41 v 16.09 l 11.996,3.641 9.414,-3.641 v -16.09"
         style="fill:#9d9991;fill-opacity:1;fill-rule:nonzero;stroke:none"
         id="path762" /><path
         d="m 366.328,552.031 -15.086,-8.742 -4.062,12.852 4.617,9.918 14.531,2.062 v -16.09"
         style="fill:#8a8680;fill-opacity:1;fill-rule:nonzero;stroke:none"
         id="path764" /><path
         d="m 387.738,552.031 15.094,-8.742 4.059,12.852 -4.661,9.918 -14.492,2.062 v -16.09"
         style="fill:#c4beb2;fill-opacity:1;fill-rule:nonzero;stroke:none"
         id="path766" /><path
         d="m 402.871,547.07 -15.133,-8.769 h -21.41 l -15.086,8.769 v 12.321 l 15.086,8.73 h 21.41 l 15.133,-8.73 z m 346.402,212 -16.468,-20.961 -25.66,0.45 -15.133,10.55 16.468,21.391 -22.609,-4.711 -19.754,-11.418 V 736.238 L 389.957,576.77 360.191,576.742 336.383,562.898 V 543.5 l 23.808,-13.77 h 33.688 l 23.855,13.77 v 17.16 l 276.309,159.481 43.047,1.121 12.418,7.226 7.379,23.551 -7.614,7.031"
         style="fill:#d5d0ca;fill-opacity:1;fill-rule:nonzero;stroke:none"
         id="path768" /><path
         d="m 603.785,679.57 v -2.238 l -7.89,4.539 H 584.777 L 466.09,613.379 v 2.203 l 118.687,68.539 h 11.118 l 7.89,-4.551"
         style="fill:#9d9991;fill-opacity:1;fill-rule:nonzero;stroke:none"
         id="path770" /><path
         d="M 603.785,677.332 V 673.16 L 485.059,604.621 H 473.98 l -7.89,4.488 v 4.27 l 118.687,68.492 h 11.118 l 7.89,-4.539"
         style="fill:#c4beb2;fill-opacity:1;fill-rule:nonzero;stroke:none"
         id="path772" /></g></g></svg>
